<svg width="20" height="20" viewBox="0 0 20 20" fill="none" xmlns="http://www.w3.org/2000/svg">
<path d="M7.14286 3.33333H12.8571V1.66667H7.14286V3.33333ZM3.21429 3.33333V20H2.5C1.81548 20 1.22768 19.7135 0.736607 19.1406C0.245536 18.5677 0 17.8819 0 17.0833V6.25C0 5.45139 0.245536 4.76562 0.736607 4.19271C1.22768 3.61979 1.81548 3.33333 2.5 3.33333H3.21429ZM15.7143 3.33333V20H4.28571V3.33333H5.71429V1.25C5.71429 0.902778 5.81845 0.607639 6.02679 0.364583C6.23512 0.121528 6.4881 0 6.78571 0H13.2143C13.5119 0 13.7649 0.121528 13.9732 0.364583C14.1815 0.607639 14.2857 0.902778 14.2857 1.25V3.33333H15.7143ZM20 6.25V17.0833C20 17.8819 19.7545 18.5677 19.2634 19.1406C18.7723 19.7135 18.1845 20 17.5 20H16.7857V3.33333H17.5C18.1845 3.33333 18.7723 3.61979 19.2634 4.19271C19.7545 4.76562 20 5.45139 20 6.25Z" fill="#FFFEF5"/>
</svg>
