<svg width="1011" height="91" viewBox="0 0 1011 91" fill="none" xmlns="http://www.w3.org/2000/svg">
<path d="M37.6393 5.50818C35.5823 6.88812 33.3089 8.59694 31.4767 10.5029C28.2258 13.8846 25.0017 17.697 22.2307 21.5115C20.3587 24.0884 17.9301 27.9987 16.6031 30.875C14.8373 34.7029 13.7914 37.3847 12.8222 41.5903C11.4569 47.5153 11.6452 53.5958 13.0319 59.3282C15.0721 67.7617 21.6016 74.8181 28.1266 80.546C33.2311 85.0266 40.0938 87.9579 46.1236 90.1111L46.7467 88.4666C40.772 86.3344 34.4395 83.4862 29.5475 79.1869C23.2544 73.6557 17.4418 66.9105 14.9345 58.8728C13.4073 53.98 13.0528 48.6118 13.8541 43.4132C14.556 38.8592 16.3207 34.2952 18.0397 30.1455C19.453 26.7343 21.1007 24.0769 23.1107 21.278C25.6591 17.7291 28.4595 14.2682 31.4363 11.1081C33.3633 9.0625 35.9404 7.21576 38.0102 5.82728L37.6393 5.50818Z" fill="#5F5E61"/>
<path d="M35.0265 85.085C35.0265 85.085 30.7912 83.7476 27.4302 84.1416C22.0942 84.767 21.6023 88.0756 21.6023 88.0756C21.6023 88.0756 23.743 89.4029 28.3344 88.8985C33.7133 88.3076 35.0264 85.0849 35.0264 85.0849L35.0265 85.085Z" fill="#5F5E61"/>
<path d="M27.8136 80.1438C27.8136 80.1438 24.2444 78.4529 20.8604 78.4779C15.0019 78.5213 14.6506 81.6292 14.6506 81.6292C14.6506 81.6292 16.7712 83.1573 21.4632 83.0944C26.874 83.0219 27.8136 80.1438 27.8136 80.1438Z" fill="#5F5E61"/>
<path d="M22.4782 74.9477C22.4782 74.9477 19.0844 71.977 15.8018 71.1554C10.1189 69.7332 8.23657 73.0359 8.23657 73.0359C8.23657 73.0359 10.349 75.5671 14.9075 76.6789C20.1642 77.9609 22.4782 74.9477 22.4782 74.9477Z" fill="#5F5E61"/>
<path d="M16.4531 66.9436C16.4531 66.9436 13.5508 63.888 9.57772 62.6688C4.39277 61.0777 1.95565 64.2015 1.88452 64.2796C1.88452 64.2796 4.00912 66.9505 8.44176 68.1213C14.3874 69.6919 16.4531 66.9436 16.4531 66.9436Z" fill="#5F5E61"/>
<path d="M13.5833 60.5739C13.5833 60.5739 10.8803 56.4628 6.8486 54.5223C2.93217 52.6362 0.0710114 54.2424 0 54.3053C0 54.3053 2.01184 57.9775 5.71321 59.7371C10.7422 62.128 13.5839 60.5735 13.5839 60.5735L13.5833 60.5739Z" fill="#5F5E61"/>
<path d="M12.7123 54.9843C11.2696 53.6287 11.1621 49.9442 9.09994 46.9544C6.22313 42.7832 1.47775 43.0856 1.40674 43.1249C1.40674 43.1249 1.91476 48.3216 5.51223 51.4625C9.33548 54.8005 12.7122 54.9846 12.7122 54.9846L12.7123 54.9843Z" fill="#5F5E61"/>
<path d="M12.3139 46.2248C12.3139 46.2248 12.4539 41.708 11.2614 38.278C9.59773 33.4932 5.05626 32.5539 4.97737 32.5727C4.97737 32.5727 4.24088 37.689 6.87341 41.6717C9.67122 45.9043 12.3139 46.2247 12.3139 46.2247L12.3139 46.2248Z" fill="#5F5E61"/>
<path d="M14.2372 37.7599C14.2372 37.7599 15.1431 33.9681 14.6842 30.3662C13.9925 24.9376 9.76292 23.7884 9.68211 23.7963C9.68211 23.7963 8.23218 28.8243 10.2949 33.129C12.487 37.7039 14.2372 37.7599 14.2372 37.7599Z" fill="#5F5E61"/>
<path d="M17.9633 28.6713C17.9633 28.6713 19.4363 25.2413 19.2476 21.6154C18.9856 16.5831 15.5716 14.4571 15.4905 14.4542C15.4905 14.4542 12.1987 17.4187 14.0893 23.7997C15.2362 27.6705 17.9634 28.6714 17.9634 28.6714L17.9633 28.6713Z" fill="#5F5E61"/>
<path d="M22.7033 21.199C22.7033 21.199 24.8922 17.8313 25.4978 14.2511C26.0663 10.89 24.701 7.22825 24.3962 6.89172C24.3962 6.89172 20.8344 8.45521 20.9678 14.4556C21.0575 18.4913 22.7033 21.199 22.7033 21.199Z" fill="#5F5E61"/>
<path d="M28.5272 13.9885C28.5272 13.9885 31.1372 11.2125 31.8171 7.41686C32.3797 4.27145 31.8126 0.853362 31.2195 0.000244141C31.2195 0.000244141 27.8152 2.11281 27.5678 7.45542C27.3812 11.4878 28.2573 13.407 28.5273 13.9889L28.5272 13.9885Z" fill="#5F5E61"/>
<path d="M32.752 9.56624C32.752 9.56624 37.726 9.74573 40.1981 8.31219C42.9653 6.70756 45.6809 3.22462 45.8951 2.20785C45.8951 2.20785 41.5386 0.299851 37.4766 3.78505C34.4109 6.41544 32.9906 8.97086 32.752 9.56624Z" fill="#5F5E61"/>
<path d="M27.2714 15.5599C27.2714 15.5599 29.6505 12.7777 33.7388 12.0589C36.8901 11.5049 39.3127 12.0164 40.8681 12.9216C40.8681 12.9216 38.4685 15.9922 33.8693 16.4155C29.8448 16.7858 27.8625 15.8102 27.2712 15.5598L27.2714 15.5599Z" fill="#5F5E61"/>
<path d="M22.3546 21.9745C22.3546 21.9745 24.62 19.3059 28.7084 18.5872C31.8597 18.0332 33.3728 18.6015 34.9282 19.5067C34.9282 19.5067 33.0118 22.4354 28.4126 22.8585C24.388 23.2289 22.9458 22.2248 22.3545 21.9745L22.3546 21.9745Z" fill="#5F5E61"/>
<path d="M17.5818 30.3426C17.5818 30.3426 19.6981 27.0536 23.5247 25.4462C27.4458 23.7991 29.4598 24.5856 31.1463 25.2144C30.6085 26.0202 28.4075 29.3788 24.839 30.3871C20.95 31.4859 18.2069 30.4892 17.5818 30.3426Z" fill="#5F5E61"/>
<path d="M14.7493 37.7747C14.7493 37.7747 16.6246 34.3429 20.3262 32.4663C24.1194 30.5432 26.1845 31.1838 27.9117 31.6905C27.433 32.5326 25.4782 36.0399 21.9911 37.3006C18.1907 38.6745 15.3833 37.8763 14.7493 37.7747Z" fill="#5F5E61"/>
<path d="M13.2615 46.607C14.8844 44.5289 15.7667 42.2947 18.2637 40.0711C21.34 37.3316 23.9797 38.2049 25.7712 38.3818C24.8893 40.0362 23.5651 42.6534 20.8285 44.6252C17.5507 46.9868 13.9034 46.5892 13.2615 46.6072V46.607Z" fill="#5F5E61"/>
<path d="M13.4629 54.7449C14.8428 52.4984 15.4977 50.7474 17.7299 48.2586C20.48 45.1925 23.0872 45.7369 24.8873 45.7125C24.1963 47.455 23.0315 50.0618 20.533 52.3271C17.5404 55.0403 14.0986 54.6553 13.4629 54.7449Z" fill="#5F5E61"/>
<path d="M15.2378 61.2336C17.3139 58.0323 17.0519 57.3078 19.0839 54.6535C21.2662 51.8028 24.0226 51.8811 25.8149 51.7125C25.266 53.5049 24.4459 55.9294 22.1195 58.3708C19.6386 60.9743 17.0581 60.6391 15.2379 61.2336H15.2378Z" fill="#5F5E61"/>
<path d="M18.6487 67.5921C19.9575 64.7599 19.7315 62.9912 20.9316 60.9837C22.8945 57.7001 24.8188 57.5584 26.6111 57.3899C25.1815 61.4808 25.5125 61.4997 23.9387 63.9914C22.4074 66.416 20.3267 66.7423 18.6487 67.5922V67.5921Z" fill="#5F5E61"/>
<path d="M22.7607 72.939C23.5066 69.9098 22.7493 68.9829 23.5455 66.784C24.8476 63.1876 26.7099 62.6832 28.4374 62.1775C28.2387 64.5917 28.5386 66.1234 27.1838 68.7402C26.2271 70.5881 24.2465 71.786 22.7607 72.939Z" fill="#5F5E61"/>
<path d="M31.0492 66.9918C31.0492 66.9918 32.5451 69.8765 32.0482 73.2197C31.3442 77.9567 28.8097 78.6664 28.8097 78.6664C28.8097 78.6664 27.3662 76.5134 27.5129 72.1447C27.6696 67.4783 31.0492 66.9917 31.0492 66.9917L31.0492 66.9918Z" fill="#5F5E61"/>
<path d="M36.4488 71.8173C36.4488 71.8173 37.9459 74.7379 37.6185 78.102C37.1986 82.4132 34.8347 83.4919 34.8347 83.4919C34.8347 83.4919 33.3456 81.0852 33.2821 77.4529C33.1853 71.9064 36.449 71.8174 36.449 71.8174L36.4488 71.8173Z" fill="#5F5E61"/>
<path d="M55.5306 11.7517H58.4426V30.0557H55.1146V17.6797H50.9546V15.1837C54.9066 15.1837 55.1666 14.4037 55.5306 11.7517ZM69.6847 11.5437C74.5727 11.5437 77.1727 15.5477 77.1727 20.9037C77.1727 26.2597 74.5727 30.2637 69.6847 30.2637C64.7967 30.2637 62.1967 26.2597 62.1967 20.9037C62.1967 15.5477 64.7967 11.5437 69.6847 11.5437ZM69.6847 27.1437C72.4667 27.1437 73.8447 24.5697 73.8447 20.9037C73.8447 17.2377 72.4667 14.6637 69.6847 14.6637C66.9027 14.6637 65.5247 17.2377 65.5247 20.9037C65.5247 24.5697 66.9027 27.1437 69.6847 27.1437ZM93.8312 11.5437C98.7192 11.5437 101.319 15.5477 101.319 20.9037C101.319 26.2597 98.7192 30.2637 93.8312 30.2637C88.9432 30.2637 86.3432 26.2597 86.3432 20.9037C86.3432 15.5477 88.9432 11.5437 93.8312 11.5437ZM93.8312 27.1437C96.6132 27.1437 97.9912 24.5697 97.9912 20.9037C97.9912 17.2377 96.6132 14.6637 93.8312 14.6637C91.0492 14.6637 89.6712 17.2377 89.6712 20.9037C89.6712 24.5697 91.0492 27.1437 93.8312 27.1437ZM110.894 11.5437C115.782 11.5437 118.382 15.5477 118.382 20.9037C118.382 26.2597 115.782 30.2637 110.894 30.2637C106.006 30.2637 103.406 26.2597 103.406 20.9037C103.406 15.5477 106.006 11.5437 110.894 11.5437ZM110.894 27.1437C113.676 27.1437 115.054 24.5697 115.054 20.9037C115.054 17.2377 113.676 14.6637 110.894 14.6637C108.112 14.6637 106.734 17.2377 106.734 20.9037C106.734 24.5697 108.112 27.1437 110.894 27.1437ZM127.956 11.5437C132.844 11.5437 135.444 15.5477 135.444 20.9037C135.444 26.2597 132.844 30.2637 127.956 30.2637C123.068 30.2637 120.468 26.2597 120.468 20.9037C120.468 15.5477 123.068 11.5437 127.956 11.5437ZM127.956 27.1437C130.738 27.1437 132.116 24.5697 132.116 20.9037C132.116 17.2377 130.738 14.6637 127.956 14.6637C125.174 14.6637 123.796 17.2377 123.796 20.9037C123.796 24.5697 125.174 27.1437 127.956 27.1437ZM145.123 19.6817H150.141V22.0997H145.123V27.1697H142.679V22.0997H137.687V19.6817H142.679V14.5597H145.123V19.6817Z" fill="#663AFF"/>
<path d="M66.9728 51.5857C69.7628 51.9637 71.8508 52.6117 71.8508 55.2757C71.8508 57.3277 70.1408 59.1997 66.8108 59.1997C63.3008 59.1997 61.7708 56.9317 61.7708 54.5917H63.5708C63.6068 55.8517 64.2728 57.6157 66.8108 57.6157C69.2948 57.6157 69.9788 56.3377 69.9788 55.3837C69.9788 54.2677 69.2768 53.6557 66.7928 53.3497C63.8408 52.9897 62.2028 51.9637 62.2028 49.8037C62.2028 47.8237 63.8948 46.2397 66.8288 46.2397C69.9428 46.2397 71.3108 48.2197 71.3648 50.2717H69.6188C69.6188 49.1557 68.8628 47.8237 66.7928 47.8237C64.6688 47.8237 64.0568 48.8677 64.0568 49.6957C64.0568 50.4697 64.3988 51.2437 66.9728 51.5857ZM78.7632 49.8397V51.3517H76.1712V56.1757C76.1712 57.2197 76.3872 57.5437 77.3952 57.5437H78.7632V59.0557H77.2512C75.3432 59.0557 74.4432 58.3537 74.4432 56.3557V51.3517H72.7152V49.8397H74.4432V47.2477H76.1712V49.8397H78.7632ZM83.637 59.1997C81.513 59.1997 80.217 58.0117 80.217 55.3117V49.8397H81.945V54.9517C81.945 57.0937 82.863 57.6877 84.069 57.6877C85.401 57.6877 86.841 56.3377 86.841 54.1417V49.8397H88.569V59.0557H86.841V58.4437C86.841 58.0657 86.877 57.6877 87.039 57.2197C87.093 57.0577 87.165 56.8957 87.021 56.8417C86.913 56.8057 86.859 56.9317 86.823 57.0037C86.391 57.8677 85.293 59.1997 83.637 59.1997ZM97.3595 50.5597V46.0957H99.0875V59.0557H97.3595V58.2817C97.3595 57.9577 97.3955 57.7057 97.5395 57.3097C97.5935 57.1657 97.6835 57.0037 97.5035 56.9497C97.3955 56.9137 97.3415 57.0577 97.3235 57.1117C96.8915 58.4077 95.6675 59.1997 94.2275 59.1997C91.8335 59.1997 90.1595 57.1837 90.1595 54.4477C90.1595 51.7117 91.8335 49.6957 94.2275 49.6957C95.7035 49.6957 96.9095 50.5057 97.3235 51.7477C97.3415 51.8017 97.3955 51.9817 97.5395 51.9277C97.7015 51.8737 97.5935 51.6937 97.5395 51.5497C97.3955 51.1717 97.3595 50.9017 97.3595 50.5597ZM94.5875 57.6157C96.2255 57.6157 97.3595 56.1577 97.3595 54.4477C97.3595 52.7377 96.2255 51.2797 94.5875 51.2797C92.7875 51.2797 91.8875 52.7377 91.8875 54.4477C91.8875 56.1577 92.7875 57.6157 94.5875 57.6157ZM109.171 54.3217C109.171 54.5737 109.153 54.7537 109.117 54.9517H102.241C102.367 56.4277 103.375 57.6157 105.049 57.6157C106.291 57.6157 106.903 57.0037 107.227 55.9417H109.009C108.631 57.6517 107.371 59.1997 105.013 59.1997C102.115 59.1997 100.531 57.0577 100.531 54.4477C100.531 51.6757 102.331 49.6957 104.977 49.6957C107.029 49.6957 109.171 51.0457 109.171 54.3217ZM102.331 53.5117H107.443C107.335 52.1617 106.471 51.2077 105.067 51.2077C103.339 51.2077 102.583 52.2697 102.331 53.5117ZM115.548 49.6957C117.672 49.6957 118.968 50.8837 118.968 53.5837V59.0557H117.24V53.9437C117.24 51.8017 116.322 51.2077 115.116 51.2077C113.784 51.2077 112.344 52.5577 112.344 54.7537V59.0557H110.616V49.8397H112.344V50.4517C112.344 50.8297 112.308 51.2077 112.146 51.6757C112.092 51.8377 112.02 52.0177 112.164 52.0537C112.272 52.0897 112.326 51.9637 112.362 51.8917C112.722 50.9917 113.892 49.6957 115.548 49.6957ZM126.031 49.8397V51.3517H123.439V56.1757C123.439 57.2197 123.655 57.5437 124.663 57.5437H126.031V59.0557H124.519C122.611 59.0557 121.711 58.3537 121.711 56.3557V51.3517H119.983V49.8397H121.711V47.2477H123.439V49.8397H126.031ZM127.478 55.8517H129.17C129.188 56.5537 129.764 57.6877 131.564 57.6877C133.328 57.6877 133.814 56.9857 133.814 56.3917C133.814 55.5637 133.04 55.3117 130.934 55.0957C128.522 54.8437 127.766 53.7457 127.766 52.5397C127.766 51.1537 129.026 49.6957 131.546 49.6957C133.868 49.6957 135.128 51.0277 135.254 52.7557H133.562C133.508 52.1617 133.112 51.2077 131.492 51.2077C130.034 51.2077 129.494 51.8017 129.494 52.4137C129.494 53.0077 129.836 53.4037 131.834 53.6197C134.318 53.8897 135.542 54.6097 135.542 56.1217C135.542 57.9937 134.012 59.1997 131.492 59.1997C128.99 59.1997 127.568 57.8857 127.478 55.8517ZM62.7196 77.0557L59.9116 67.8397H61.7836L63.6736 74.7337C63.7636 75.0937 63.7996 75.4357 63.7996 75.7957C63.7996 75.9037 63.8176 76.0117 63.9436 76.0117C64.0696 76.0117 64.0876 75.9037 64.0876 75.7957C64.0876 75.4357 64.1236 75.0937 64.2136 74.7337L65.9596 67.8397H67.9756L69.7216 74.7337C69.8116 75.0937 69.8476 75.4357 69.8476 75.7957C69.8476 75.9037 69.8656 76.0117 69.9916 76.0117C70.1176 76.0117 70.1356 75.9037 70.1356 75.7957C70.1356 75.4357 70.1716 75.0937 70.2616 74.7337L72.1516 67.8397H74.0236L71.2156 77.0557H68.9116L67.2016 70.5037C67.1476 70.2337 67.1116 69.8917 67.1116 69.5317C67.1116 69.4237 67.1116 69.2977 66.9676 69.2977C66.8236 69.2977 66.8236 69.4237 66.8236 69.5317C66.8236 69.8917 66.7876 70.2337 66.7336 70.5037L65.0236 77.0557H62.7196ZM78.7856 67.6957C81.5756 67.6957 83.2496 69.8377 83.2496 72.4477C83.2496 75.0577 81.5756 77.1997 78.7856 77.1997C75.9956 77.1997 74.3216 75.0577 74.3216 72.4477C74.3216 69.8377 75.9956 67.6957 78.7856 67.6957ZM78.7856 75.6157C80.5136 75.6157 81.5216 74.1937 81.5216 72.4477C81.5216 70.7017 80.5136 69.2797 78.7856 69.2797C77.0576 69.2797 76.0496 70.7017 76.0496 72.4477C76.0496 74.1937 77.0576 75.6157 78.7856 75.6157ZM86.4526 69.8197C87.0286 68.3437 87.5506 67.6957 89.8726 67.6957V69.4597C87.1906 69.2797 86.4166 70.2337 86.4166 72.6457V77.0557H84.6886V67.8397H86.4166V68.4517C86.4166 68.8297 86.3806 69.1177 86.2186 69.6577C86.1826 69.8017 86.1286 69.9457 86.2726 69.9817C86.3626 69.9997 86.4166 69.9097 86.4526 69.8197ZM93.0436 64.0957V77.0557H91.3156V64.0957H93.0436ZM101.824 68.5597V64.0957H103.552V77.0557H101.824V76.2817C101.824 75.9577 101.86 75.7057 102.004 75.3097C102.058 75.1657 102.148 75.0037 101.968 74.9497C101.86 74.9137 101.806 75.0577 101.788 75.1117C101.356 76.4077 100.132 77.1997 98.6923 77.1997C96.2983 77.1997 94.6243 75.1837 94.6243 72.4477C94.6243 69.7117 96.2983 67.6957 98.6923 67.6957C100.168 67.6957 101.374 68.5057 101.788 69.7477C101.806 69.8017 101.86 69.9817 102.004 69.9277C102.166 69.8737 102.058 69.6937 102.004 69.5497C101.86 69.1717 101.824 68.9017 101.824 68.5597ZM99.0523 75.6157C100.69 75.6157 101.824 74.1577 101.824 72.4477C101.824 70.7377 100.69 69.2797 99.0523 69.2797C97.2523 69.2797 96.3523 70.7377 96.3523 72.4477C96.3523 74.1577 97.2523 75.6157 99.0523 75.6157ZM107.368 77.0557L104.56 67.8397H106.432L108.322 74.7337C108.412 75.0937 108.448 75.4357 108.448 75.7957C108.448 75.9037 108.466 76.0117 108.592 76.0117C108.718 76.0117 108.736 75.9037 108.736 75.7957C108.736 75.4357 108.772 75.0937 108.862 74.7337L110.608 67.8397H112.624L114.37 74.7337C114.46 75.0937 114.496 75.4357 114.496 75.7957C114.496 75.9037 114.514 76.0117 114.64 76.0117C114.766 76.0117 114.784 75.9037 114.784 75.7957C114.784 75.4357 114.82 75.0937 114.91 74.7337L116.8 67.8397H118.672L115.864 77.0557H113.56L111.85 70.5037C111.796 70.2337 111.76 69.8917 111.76 69.5317C111.76 69.4237 111.76 69.2977 111.616 69.2977C111.472 69.2977 111.472 69.4237 111.472 69.5317C111.472 69.8917 111.436 70.2337 111.382 70.5037L109.672 77.0557H107.368ZM119.615 66.1117V64.0957H121.487V66.1117H119.615ZM119.687 67.8397H121.415V77.0557H119.687V67.8397ZM130.195 68.5597V64.0957H131.923V77.0557H130.195V76.2817C130.195 75.9577 130.231 75.7057 130.375 75.3097C130.429 75.1657 130.519 75.0037 130.339 74.9497C130.231 74.9137 130.177 75.0577 130.159 75.1117C129.727 76.4077 128.503 77.1997 127.063 77.1997C124.669 77.1997 122.995 75.1837 122.995 72.4477C122.995 69.7117 124.669 67.6957 127.063 67.6957C128.539 67.6957 129.745 68.5057 130.159 69.7477C130.177 69.8017 130.231 69.9817 130.375 69.9277C130.537 69.8737 130.429 69.6937 130.375 69.5497C130.231 69.1717 130.195 68.9017 130.195 68.5597ZM127.423 75.6157C129.061 75.6157 130.195 74.1577 130.195 72.4477C130.195 70.7377 129.061 69.2797 127.423 69.2797C125.623 69.2797 124.723 70.7377 124.723 72.4477C124.723 74.1577 125.623 75.6157 127.423 75.6157ZM142.007 72.3217C142.007 72.5737 141.989 72.7537 141.953 72.9517H135.077C135.203 74.4277 136.211 75.6157 137.885 75.6157C139.127 75.6157 139.739 75.0037 140.063 73.9417H141.845C141.467 75.6517 140.207 77.1997 137.849 77.1997C134.951 77.1997 133.367 75.0577 133.367 72.4477C133.367 69.6757 135.167 67.6957 137.813 67.6957C139.865 67.6957 142.007 69.0457 142.007 72.3217ZM135.167 71.5117H140.279C140.171 70.1617 139.307 69.2077 137.903 69.2077C136.175 69.2077 135.419 70.2697 135.167 71.5117Z" fill="#FFFEF5"/>
<path d="M164.85 5.50854C166.907 6.88848 169.18 8.5973 171.012 10.5033C174.263 13.8849 177.487 17.6973 180.258 21.5119C182.13 24.0888 184.559 27.999 185.886 30.8754C187.652 34.7033 188.698 37.385 189.667 41.5907C191.032 47.5157 190.844 53.5962 189.457 59.3286C187.417 67.7621 180.888 74.8185 174.363 80.5464C169.258 85.027 162.395 87.9583 156.366 90.1114L155.747 88.4681C161.722 86.3345 168.055 83.4867 172.947 79.187C179.24 73.6566 185.051 66.9118 187.56 58.8729C189.087 53.98 189.441 48.6113 188.64 43.4134C187.938 38.8594 186.173 34.2954 184.454 30.1457C183.041 26.7344 181.393 24.0771 179.383 21.2782C176.835 17.7293 174.035 14.2683 171.058 11.1082C169.131 9.06264 166.554 7.2159 164.484 5.82742L164.85 5.50854Z" fill="#5F5E61"/>
<path d="M167.472 85.0853C167.472 85.0853 171.707 83.748 175.068 84.142C180.404 84.7674 180.896 88.076 180.896 88.076C180.896 88.076 178.756 89.4033 174.164 88.8989C168.785 88.308 167.472 85.0853 167.472 85.0853Z" fill="#5F5E61"/>
<path d="M174.674 80.1442C174.674 80.1442 178.244 78.4532 181.628 78.4783C187.486 78.5216 187.837 81.6296 187.837 81.6296C187.837 81.6296 185.717 83.1576 181.025 83.0948C175.614 83.0223 174.674 80.1442 174.674 80.1442Z" fill="#5F5E61"/>
<path d="M180.02 74.9481C180.02 74.9481 183.414 71.9773 186.696 71.1558C192.379 69.7336 194.262 73.0363 194.262 73.0363C194.262 73.0363 192.149 75.5675 187.591 76.6793C182.334 77.9613 180.02 74.9481 180.02 74.9481Z" fill="#5F5E61"/>
<path d="M186.041 66.944C186.041 66.944 188.943 63.8884 192.916 62.6692C198.101 61.078 200.538 64.2019 200.609 64.28C200.609 64.28 198.485 66.9508 194.052 68.1217C188.107 69.6923 186.041 66.944 186.041 66.944H186.041Z" fill="#5F5E61"/>
<path d="M188.91 60.5743C188.91 60.5743 191.613 56.4631 195.645 54.5226C199.562 52.6372 202.423 54.2429 202.494 54.3062C202.494 54.3062 200.482 57.9783 196.781 59.7379C191.752 62.1288 188.91 60.5743 188.91 60.5743Z" fill="#5F5E61"/>
<path d="M189.777 54.9846C191.219 53.6292 191.327 49.9448 193.389 46.9546C196.266 42.7833 201.011 43.0859 201.082 43.1249C201.082 43.1249 200.574 48.3216 196.977 51.4625C193.154 54.8005 189.777 54.9846 189.777 54.9846Z" fill="#5F5E61"/>
<path d="M190.182 46.2252C190.182 46.2252 190.042 41.7084 191.235 38.2784C192.898 33.4936 197.44 32.5543 197.519 32.573C197.519 32.573 198.255 37.6894 195.623 41.6721C192.825 45.9047 190.182 46.225 190.182 46.225L190.182 46.2252Z" fill="#5F5E61"/>
<path d="M188.258 37.7604C188.258 37.7604 187.352 33.9686 187.811 30.3667C188.502 24.9381 192.732 23.7889 192.813 23.7968C192.813 23.7968 194.263 28.8248 192.2 33.1295C190.008 37.7044 188.258 37.7604 188.258 37.7604Z" fill="#5F5E61"/>
<path d="M184.533 28.6716C184.533 28.6716 183.06 25.2416 183.248 21.6157C183.51 16.5835 186.924 14.4575 187.005 14.4546C187.005 14.4546 190.297 17.419 188.407 23.8001C187.26 27.6708 184.533 28.6718 184.533 28.6718L184.533 28.6716Z" fill="#5F5E61"/>
<path d="M179.784 21.1994C179.784 21.1994 177.595 17.8317 176.989 14.2515C176.421 10.8904 177.786 7.22862 178.091 6.89209C178.091 6.89209 181.652 8.45558 181.519 14.456C181.429 18.4917 179.784 21.1994 179.784 21.1994Z" fill="#5F5E61"/>
<path d="M173.965 13.9888C173.965 13.9888 171.355 11.2128 170.675 7.41718C170.112 4.27121 170.679 0.853118 171.273 0C171.273 0 174.677 2.11256 174.925 7.45517C175.111 11.4875 174.235 13.4068 173.965 13.9887L173.965 13.9888Z" fill="#5F5E61"/>
<path d="M169.745 9.56673C169.745 9.56673 164.771 9.74622 162.299 8.31268C159.532 6.70805 156.816 3.22511 156.602 2.20833C156.602 2.20833 160.959 0.30034 165.021 3.78553C168.086 6.41593 169.507 8.97135 169.745 9.56673Z" fill="#5F5E61"/>
<path d="M175.226 15.5602C175.226 15.5602 172.847 12.7781 168.758 12.0593C165.607 11.5053 163.185 12.0168 161.629 12.922C161.629 12.922 164.029 15.9925 168.628 16.4158C172.652 16.7862 174.635 15.8105 175.226 15.5602Z" fill="#5F5E61"/>
<path d="M180.132 21.975C180.132 21.975 177.867 19.3064 173.779 18.5877C170.627 18.0337 169.114 18.602 167.559 19.5071C167.559 19.5071 169.475 22.4358 174.074 22.859C178.099 23.2294 179.541 22.2253 180.133 21.975L180.132 21.975Z" fill="#5F5E61"/>
<path d="M184.915 30.343C184.915 30.343 182.799 27.0539 178.972 25.4466C175.051 23.7995 173.037 24.586 171.351 25.2148C171.889 26.0205 174.09 29.3792 177.658 30.3874C181.547 31.4863 184.29 30.4896 184.915 30.343Z" fill="#5F5E61"/>
<path d="M187.74 37.7751C187.74 37.7751 185.865 34.3433 182.163 32.4666C178.37 30.5436 176.305 31.1841 174.578 31.6908C175.056 32.533 177.011 36.0403 180.498 37.301C184.299 38.6748 187.106 37.8767 187.74 37.7751Z" fill="#5F5E61"/>
<path d="M189.226 46.6074C187.603 44.5292 186.72 42.2951 184.223 40.0715C181.147 37.3319 178.507 38.2053 176.716 38.3822C177.598 40.0366 178.922 42.6537 181.658 44.6256C184.936 46.9872 188.584 46.5895 189.226 46.6075V46.6074Z" fill="#5F5E61"/>
<path d="M189.034 54.7452C187.654 52.4988 186.999 50.7477 184.767 48.259C182.017 45.1929 179.41 45.7373 177.61 45.7129C178.301 47.4554 179.466 50.0622 181.964 52.3275C184.957 55.0406 188.398 54.6557 189.034 54.7452Z" fill="#5F5E61"/>
<path d="M187.256 61.234C185.18 58.0327 185.442 57.3082 183.41 54.6538C181.228 51.8031 178.471 51.8815 176.679 51.7129C177.228 53.5052 178.048 55.9298 180.374 58.3711C182.855 60.9747 185.436 60.6395 187.256 61.234Z" fill="#5F5E61"/>
<path d="M183.846 67.5925C182.537 64.7602 182.763 62.9916 181.563 60.984C179.6 57.7005 177.676 57.5587 175.884 57.3903C177.313 61.4812 176.982 61.5001 178.556 63.9917C180.087 66.4163 182.168 66.7426 183.846 67.5926V67.5925Z" fill="#5F5E61"/>
<path d="M179.727 72.9394C178.982 69.9102 179.739 68.9832 178.943 66.7844C177.641 63.188 175.778 62.6835 174.051 62.1779C174.249 64.5921 173.95 66.1238 175.304 68.7406C176.261 70.5884 178.242 71.7864 179.727 72.9394Z" fill="#5F5E61"/>
<path d="M171.444 66.9923C171.444 66.9923 169.948 69.8769 170.445 73.2202C171.149 77.9572 173.684 78.6669 173.684 78.6669C173.684 78.6669 175.127 76.5138 174.981 72.1452C174.824 67.4788 171.444 66.9922 171.444 66.9922L171.444 66.9923Z" fill="#5F5E61"/>
<path d="M166.043 71.8176C166.043 71.8176 164.546 74.7382 164.873 78.1024C165.293 82.4136 167.657 83.4923 167.657 83.4923C167.657 83.4923 169.146 81.0856 169.21 77.4533C169.306 71.9068 166.043 71.8176 166.043 71.8176Z" fill="#5F5E61"/>
<path d="M320.134 5.50818C318.077 6.88812 315.803 8.59694 313.971 10.5029C310.72 13.8846 307.496 17.697 304.725 21.5115C302.853 24.0884 300.424 27.9987 299.098 30.875C297.332 34.7029 296.286 37.3847 295.317 41.5903C293.951 47.5153 294.14 53.5958 295.526 59.3282C297.566 67.7617 304.096 74.8181 310.621 80.546C315.725 85.0266 322.588 87.9579 328.618 90.1111L329.241 88.4666C323.266 86.3344 316.934 83.4862 312.042 79.1869C305.749 73.6557 299.936 66.9105 297.429 58.8728C295.902 53.98 295.547 48.6118 296.348 43.4132C297.05 38.8592 298.815 34.2952 300.534 30.1455C301.947 26.7343 303.595 24.0769 305.605 21.278C308.153 17.7291 310.954 14.2682 313.931 11.1081C315.858 9.0625 318.435 7.21576 320.505 5.82728L320.134 5.50818Z" fill="#5F5E61"/>
<path d="M317.521 85.085C317.521 85.085 313.286 83.7476 309.925 84.1416C304.589 84.767 304.097 88.0756 304.097 88.0756C304.097 88.0756 306.237 89.4029 310.829 88.8985C316.208 88.3076 317.521 85.0849 317.521 85.0849L317.521 85.085Z" fill="#5F5E61"/>
<path d="M310.308 80.1438C310.308 80.1438 306.739 78.4529 303.355 78.4779C297.496 78.5213 297.145 81.6292 297.145 81.6292C297.145 81.6292 299.266 83.1573 303.958 83.0944C309.368 83.0219 310.308 80.1438 310.308 80.1438Z" fill="#5F5E61"/>
<path d="M304.973 74.9477C304.973 74.9477 301.579 71.977 298.296 71.1554C292.613 69.7332 290.731 73.0359 290.731 73.0359C290.731 73.0359 292.843 75.5671 297.402 76.6789C302.659 77.9609 304.973 74.9477 304.973 74.9477Z" fill="#5F5E61"/>
<path d="M298.947 66.9436C298.947 66.9436 296.045 63.888 292.072 62.6688C286.887 61.0777 284.45 64.2015 284.379 64.2796C284.379 64.2796 286.504 66.9505 290.936 68.1213C296.882 69.6919 298.947 66.9436 298.947 66.9436Z" fill="#5F5E61"/>
<path d="M296.078 60.5739C296.078 60.5739 293.375 56.4628 289.343 54.5223C285.427 52.6362 282.565 54.2424 282.494 54.3053C282.494 54.3053 284.506 57.9775 288.208 59.7371C293.237 62.128 296.078 60.5735 296.078 60.5735L296.078 60.5739Z" fill="#5F5E61"/>
<path d="M295.207 54.9843C293.764 53.6287 293.656 49.9442 291.594 46.9544C288.718 42.7832 283.972 43.0856 283.901 43.1249C283.901 43.1249 284.409 48.3216 288.007 51.4625C291.83 54.8005 295.207 54.9846 295.207 54.9846L295.207 54.9843Z" fill="#5F5E61"/>
<path d="M294.808 46.2248C294.808 46.2248 294.948 41.708 293.756 38.278C292.092 33.4932 287.551 32.5539 287.472 32.5727C287.472 32.5727 286.735 37.689 289.368 41.6717C292.166 45.9043 294.808 46.2247 294.808 46.2247L294.808 46.2248Z" fill="#5F5E61"/>
<path d="M296.732 37.7599C296.732 37.7599 297.637 33.9681 297.179 30.3662C296.487 24.9376 292.257 23.7884 292.176 23.7963C292.176 23.7963 290.727 28.8243 292.789 33.129C294.981 37.7039 296.732 37.7599 296.732 37.7599Z" fill="#5F5E61"/>
<path d="M300.458 28.6713C300.458 28.6713 301.931 25.2413 301.742 21.6154C301.48 16.5831 298.066 14.4571 297.985 14.4542C297.985 14.4542 294.693 17.4187 296.584 23.7997C297.731 27.6705 300.458 28.6714 300.458 28.6714L300.458 28.6713Z" fill="#5F5E61"/>
<path d="M305.198 21.199C305.198 21.199 307.387 17.8313 307.992 14.2511C308.561 10.89 307.195 7.22825 306.891 6.89172C306.891 6.89172 303.329 8.45521 303.462 14.4556C303.552 18.4913 305.198 21.199 305.198 21.199Z" fill="#5F5E61"/>
<path d="M311.022 13.9885C311.022 13.9885 313.632 11.2125 314.311 7.41686C314.874 4.27145 314.307 0.853362 313.714 0.000244141C313.714 0.000244141 310.31 2.11281 310.062 7.45542C309.876 11.4878 310.752 13.407 311.022 13.9889L311.022 13.9885Z" fill="#5F5E61"/>
<path d="M315.246 9.56624C315.246 9.56624 320.22 9.74573 322.692 8.31219C325.459 6.70756 328.175 3.22462 328.389 2.20785C328.389 2.20785 324.033 0.299851 319.971 3.78505C316.905 6.41544 315.485 8.97086 315.246 9.56624Z" fill="#5F5E61"/>
<path d="M309.766 15.5599C309.766 15.5599 312.145 12.7777 316.233 12.0589C319.384 11.5049 321.807 12.0164 323.362 12.9216C323.362 12.9216 320.963 15.9922 316.364 16.4155C312.339 16.7858 310.357 15.8102 309.766 15.5598L309.766 15.5599Z" fill="#5F5E61"/>
<path d="M304.849 21.9745C304.849 21.9745 307.114 19.3059 311.203 18.5872C314.354 18.0332 315.867 18.6015 317.423 19.5067C317.423 19.5067 315.506 22.4354 310.907 22.8585C306.882 23.2289 305.44 22.2248 304.849 21.9745L304.849 21.9745Z" fill="#5F5E61"/>
<path d="M300.076 30.3426C300.076 30.3426 302.192 27.0536 306.019 25.4462C309.94 23.7991 311.954 24.5856 313.641 25.2144C313.103 26.0202 310.902 29.3788 307.333 30.3871C303.444 31.4859 300.701 30.4892 300.076 30.3426Z" fill="#5F5E61"/>
<path d="M297.244 37.7747C297.244 37.7747 299.119 34.3429 302.821 32.4663C306.614 30.5432 308.679 31.1838 310.406 31.6905C309.927 32.5326 307.973 36.0399 304.485 37.3006C300.685 38.6745 297.878 37.8763 297.244 37.7747Z" fill="#5F5E61"/>
<path d="M295.756 46.607C297.379 44.5289 298.261 42.2947 300.758 40.0711C303.834 37.3316 306.474 38.2049 308.266 38.3818C307.384 40.0362 306.059 42.6534 303.323 44.6252C300.045 46.9868 296.398 46.5892 295.756 46.6072V46.607Z" fill="#5F5E61"/>
<path d="M295.957 54.7449C297.337 52.4984 297.992 50.7474 300.224 48.2586C302.974 45.1925 305.582 45.7369 307.382 45.7125C306.691 47.455 305.526 50.0618 303.027 52.3271C300.035 55.0403 296.593 54.6553 295.957 54.7449Z" fill="#5F5E61"/>
<path d="M297.732 61.2336C299.808 58.0323 299.546 57.3078 301.578 54.6535C303.761 51.8028 306.517 51.8811 308.309 51.7125C307.76 53.5049 306.94 55.9294 304.614 58.3708C302.133 60.9743 299.552 60.6391 297.732 61.2336H297.732Z" fill="#5F5E61"/>
<path d="M301.143 67.5921C302.452 64.7599 302.226 62.9912 303.426 60.9837C305.389 57.7001 307.313 57.5584 309.105 57.3899C307.676 61.4808 308.007 61.4997 306.433 63.9914C304.902 66.416 302.821 66.7423 301.143 67.5922V67.5921Z" fill="#5F5E61"/>
<path d="M305.255 72.939C306.001 69.9098 305.244 68.9829 306.04 66.784C307.342 63.1876 309.204 62.6832 310.932 62.1775C310.733 64.5917 311.033 66.1234 309.678 68.7402C308.721 70.5881 306.741 71.786 305.255 72.939Z" fill="#5F5E61"/>
<path d="M313.544 66.9918C313.544 66.9918 315.04 69.8765 314.543 73.2197C313.839 77.9567 311.304 78.6664 311.304 78.6664C311.304 78.6664 309.861 76.5134 310.007 72.1447C310.164 67.4783 313.544 66.9917 313.544 66.9917L313.544 66.9918Z" fill="#5F5E61"/>
<path d="M318.943 71.8173C318.943 71.8173 320.44 74.7379 320.113 78.102C319.693 82.4132 317.329 83.4919 317.329 83.4919C317.329 83.4919 315.84 81.0852 315.777 77.4529C315.68 71.9064 318.943 71.8174 318.943 71.8174L318.943 71.8173Z" fill="#5F5E61"/>
<path d="M350.899 11.7517H353.811V30.0557H350.483V17.6797H346.323V15.1837C350.275 15.1837 350.535 14.4037 350.899 11.7517ZM367.133 26.5197H357.981V23.1917L365.157 11.7517H370.461V23.6077H372.957V26.5197H370.461V30.0557H367.133V26.5197ZM367.055 14.0657L361.101 23.9197C360.971 24.1277 360.893 24.3357 361.101 24.4657C361.309 24.5957 361.491 24.4137 361.595 24.2837C362.011 23.8157 362.427 23.6077 363.571 23.6077H367.133V16.2237C367.133 15.5477 367.211 15.0797 367.445 14.5077C367.575 14.1957 367.731 13.8837 367.497 13.7797C367.289 13.6757 367.159 13.9097 367.055 14.0657ZM382.954 11.5437C387.842 11.5437 390.442 15.5477 390.442 20.9037C390.442 26.2597 387.842 30.2637 382.954 30.2637C378.066 30.2637 375.466 26.2597 375.466 20.9037C375.466 15.5477 378.066 11.5437 382.954 11.5437ZM382.954 27.1437C385.736 27.1437 387.114 24.5697 387.114 20.9037C387.114 17.2377 385.736 14.6637 382.954 14.6637C380.172 14.6637 378.794 17.2377 378.794 20.9037C378.794 24.5697 380.172 27.1437 382.954 27.1437ZM400.12 19.6817H405.138V22.0997H400.12V27.1697H397.676V22.0997H392.684V19.6817H397.676V14.5597H400.12V19.6817Z" fill="#663AFF"/>
<path d="M334.26 52.7197C334.26 49.1377 336.474 46.2397 340.38 46.2397C344.304 46.2397 345.906 48.9577 346.068 51.1357H344.214C344.034 49.6417 342.864 47.8237 340.434 47.8237C337.698 47.8237 336.132 50.0017 336.132 52.7197C336.132 55.4377 337.698 57.6157 340.434 57.6157C342.864 57.6157 344.034 55.7977 344.214 54.3037H346.068C345.906 56.4817 344.304 59.1997 340.38 59.1997C336.474 59.1997 334.26 56.3017 334.26 52.7197ZM351.679 49.6957C354.469 49.6957 356.143 51.8377 356.143 54.4477C356.143 57.0577 354.469 59.1997 351.679 59.1997C348.889 59.1997 347.215 57.0577 347.215 54.4477C347.215 51.8377 348.889 49.6957 351.679 49.6957ZM351.679 57.6157C353.407 57.6157 354.415 56.1937 354.415 54.4477C354.415 52.7017 353.407 51.2797 351.679 51.2797C349.951 51.2797 348.943 52.7017 348.943 54.4477C348.943 56.1937 349.951 57.6157 351.679 57.6157ZM360.996 59.1997C358.872 59.1997 357.576 58.0117 357.576 55.3117V49.8397H359.304V54.9517C359.304 57.0937 360.222 57.6877 361.428 57.6877C362.76 57.6877 364.2 56.3377 364.2 54.1417V49.8397H365.928V59.0557H364.2V58.4437C364.2 58.0657 364.236 57.6877 364.398 57.2197C364.452 57.0577 364.524 56.8957 364.38 56.8417C364.272 56.8057 364.218 56.9317 364.182 57.0037C363.75 57.8677 362.652 59.1997 360.996 59.1997ZM373.026 49.6957C375.15 49.6957 376.446 50.8837 376.446 53.5837V59.0557H374.718V53.9437C374.718 51.8017 373.8 51.2077 372.594 51.2077C371.262 51.2077 369.822 52.5577 369.822 54.7537V59.0557H368.094V49.8397H369.822V50.4517C369.822 50.8297 369.786 51.2077 369.624 51.6757C369.57 51.8377 369.498 52.0177 369.642 52.0537C369.75 52.0897 369.804 51.9637 369.84 51.8917C370.2 50.9917 371.37 49.6957 373.026 49.6957ZM383.509 49.8397V51.3517H380.917V56.1757C380.917 57.2197 381.133 57.5437 382.141 57.5437H383.509V59.0557H381.997C380.089 59.0557 379.189 58.3537 379.189 56.3557V51.3517H377.461V49.8397H379.189V47.2477H380.917V49.8397H383.509ZM387.155 51.8197C387.731 50.3437 388.253 49.6957 390.575 49.6957V51.4597C387.893 51.2797 387.119 52.2337 387.119 54.6457V59.0557H385.391V49.8397H387.119V50.4517C387.119 50.8297 387.083 51.1177 386.921 51.6577C386.885 51.8017 386.831 51.9457 386.975 51.9817C387.065 51.9997 387.119 51.9097 387.155 51.8197ZM391.946 48.1117V46.0957H393.818V48.1117H391.946ZM392.018 49.8397H393.746V59.0557H392.018V49.8397ZM403.826 54.3217C403.826 54.5737 403.808 54.7537 403.772 54.9517H396.896C397.022 56.4277 398.03 57.6157 399.704 57.6157C400.946 57.6157 401.558 57.0037 401.882 55.9417H403.664C403.286 57.6517 402.026 59.1997 399.668 59.1997C396.77 59.1997 395.186 57.0577 395.186 54.4477C395.186 51.6757 396.986 49.6957 399.632 49.6957C401.684 49.6957 403.826 51.0457 403.826 54.3217ZM396.986 53.5117H402.098C401.99 52.1617 401.126 51.2077 399.722 51.2077C397.994 51.2077 397.238 52.2697 396.986 53.5117ZM404.977 55.8517H406.669C406.687 56.5537 407.263 57.6877 409.063 57.6877C410.827 57.6877 411.313 56.9857 411.313 56.3917C411.313 55.5637 410.539 55.3117 408.433 55.0957C406.021 54.8437 405.265 53.7457 405.265 52.5397C405.265 51.1537 406.525 49.6957 409.045 49.6957C411.367 49.6957 412.627 51.0277 412.753 52.7557H411.061C411.007 52.1617 410.611 51.2077 408.991 51.2077C407.533 51.2077 406.993 51.8017 406.993 52.4137C406.993 53.0077 407.335 53.4037 409.333 53.6197C411.817 53.8897 413.041 54.6097 413.041 56.1217C413.041 57.9937 411.511 59.1997 408.991 59.1997C406.489 59.1997 405.067 57.8857 404.977 55.8517ZM349.281 73.8517H350.973C350.991 74.5537 351.567 75.6877 353.367 75.6877C355.131 75.6877 355.617 74.9857 355.617 74.3917C355.617 73.5637 354.843 73.3117 352.737 73.0957C350.325 72.8437 349.569 71.7457 349.569 70.5397C349.569 69.1537 350.829 67.6957 353.349 67.6957C355.671 67.6957 356.931 69.0277 357.057 70.7557H355.365C355.311 70.1617 354.915 69.2077 353.295 69.2077C351.837 69.2077 351.297 69.8017 351.297 70.4137C351.297 71.0077 351.639 71.4037 353.637 71.6197C356.121 71.8897 357.345 72.6097 357.345 74.1217C357.345 75.9937 355.815 77.1997 353.295 77.1997C350.793 77.1997 349.371 75.8857 349.281 73.8517ZM367.132 72.3217C367.132 72.5737 367.114 72.7537 367.078 72.9517H360.202C360.328 74.4277 361.336 75.6157 363.01 75.6157C364.252 75.6157 364.864 75.0037 365.188 73.9417H366.97C366.592 75.6517 365.332 77.1997 362.974 77.1997C360.076 77.1997 358.492 75.0577 358.492 72.4477C358.492 69.6757 360.292 67.6957 362.938 67.6957C364.99 67.6957 367.132 69.0457 367.132 72.3217ZM360.292 71.5117H365.404C365.296 70.1617 364.432 69.2077 363.028 69.2077C361.3 69.2077 360.544 70.2697 360.292 71.5117ZM370.342 69.8197C370.918 68.3437 371.44 67.6957 373.762 67.6957V69.4597C371.08 69.2797 370.306 70.2337 370.306 72.6457V77.0557H368.578V67.8397H370.306V68.4517C370.306 68.8297 370.27 69.1177 370.108 69.6577C370.072 69.8017 370.018 69.9457 370.162 69.9817C370.252 69.9997 370.306 69.9097 370.342 69.8197ZM377.646 77.0557L374.334 67.8397H376.206L378.654 75.1477C378.762 75.4537 378.798 75.7057 378.798 76.0117C378.798 76.1197 378.816 76.2457 378.942 76.2457C379.068 76.2457 379.086 76.1197 379.086 76.0117C379.086 75.7057 379.122 75.4537 379.23 75.1477L381.678 67.8397H383.55L380.238 77.0557H377.646ZM392.479 72.3217C392.479 72.5737 392.461 72.7537 392.425 72.9517H385.549C385.675 74.4277 386.683 75.6157 388.357 75.6157C389.599 75.6157 390.211 75.0037 390.535 73.9417H392.317C391.939 75.6517 390.679 77.1997 388.321 77.1997C385.423 77.1997 383.839 75.0577 383.839 72.4477C383.839 69.6757 385.639 67.6957 388.285 67.6957C390.337 67.6957 392.479 69.0457 392.479 72.3217ZM385.639 71.5117H390.751C390.643 70.1617 389.779 69.2077 388.375 69.2077C386.647 69.2077 385.891 70.2697 385.639 71.5117ZM400.901 68.5597V64.0957H402.629V77.0557H400.901V76.2817C400.901 75.9577 400.937 75.7057 401.081 75.3097C401.135 75.1657 401.225 75.0037 401.045 74.9497C400.937 74.9137 400.883 75.0577 400.865 75.1117C400.433 76.4077 399.209 77.1997 397.769 77.1997C395.375 77.1997 393.701 75.1837 393.701 72.4477C393.701 69.7117 395.375 67.6957 397.769 67.6957C399.245 67.6957 400.451 68.5057 400.865 69.7477C400.883 69.8017 400.937 69.9817 401.081 69.9277C401.243 69.8737 401.135 69.6937 401.081 69.5497C400.937 69.1717 400.901 68.9017 400.901 68.5597ZM398.129 75.6157C399.767 75.6157 400.901 74.1577 400.901 72.4477C400.901 70.7377 399.767 69.2797 398.129 69.2797C396.329 69.2797 395.429 70.7377 395.429 72.4477C395.429 74.1577 396.329 75.6157 398.129 75.6157Z" fill="#FFFEF5"/>
<path d="M432.344 5.50854C434.401 6.88848 436.675 8.5973 438.507 10.5033C441.758 13.8849 444.982 17.6973 447.753 21.5119C449.625 24.0888 452.053 27.999 453.38 30.8754C455.146 34.7033 456.192 37.385 457.161 41.5907C458.527 47.5157 458.338 53.5962 456.952 59.3286C454.911 67.7621 448.382 74.8185 441.857 80.5464C436.752 85.027 429.89 87.9583 423.86 90.1114L423.241 88.4681C429.217 86.3345 435.549 83.4867 440.441 79.187C446.734 73.6566 452.546 66.9118 455.054 58.8729C456.581 53.98 456.935 48.6113 456.134 43.4134C455.432 38.8594 453.668 34.2954 451.949 30.1457C450.535 26.7344 448.888 24.0771 446.878 21.2782C444.329 17.7293 441.529 14.2683 438.552 11.1082C436.625 9.06264 434.048 7.2159 431.978 5.82742L432.344 5.50854Z" fill="#5F5E61"/>
<path d="M434.967 85.0853C434.967 85.0853 439.202 83.748 442.563 84.142C447.899 84.7674 448.391 88.076 448.391 88.076C448.391 88.076 446.25 89.4033 441.659 88.8989C436.28 88.308 434.967 85.0853 434.967 85.0853Z" fill="#5F5E61"/>
<path d="M442.169 80.1442C442.169 80.1442 445.738 78.4532 449.122 78.4783C454.98 78.5216 455.332 81.6296 455.332 81.6296C455.332 81.6296 453.211 83.1576 448.519 83.0948C443.108 83.0223 442.169 80.1442 442.169 80.1442Z" fill="#5F5E61"/>
<path d="M447.514 74.9481C447.514 74.9481 450.908 71.9773 454.191 71.1558C459.874 69.7336 461.756 73.0363 461.756 73.0363C461.756 73.0363 459.644 75.5675 455.085 76.6793C449.828 77.9613 447.514 74.9481 447.514 74.9481Z" fill="#5F5E61"/>
<path d="M453.535 66.944C453.535 66.944 456.438 63.8884 460.411 62.6692C465.596 61.078 468.033 64.2019 468.104 64.28C468.104 64.28 465.979 66.9508 461.547 68.1217C455.601 69.6923 453.535 66.944 453.535 66.944H453.535Z" fill="#5F5E61"/>
<path d="M456.405 60.5743C456.405 60.5743 459.108 56.4631 463.14 54.5226C467.056 52.6372 469.918 54.2429 469.989 54.3062C469.989 54.3062 467.977 57.9783 464.275 59.7379C459.246 62.1288 456.405 60.5743 456.405 60.5743Z" fill="#5F5E61"/>
<path d="M457.271 54.9846C458.714 53.6292 458.821 49.9448 460.884 46.9546C463.76 42.7833 468.506 43.0859 468.577 43.1249C468.577 43.1249 468.069 48.3216 464.471 51.4625C460.648 54.8005 457.271 54.9846 457.271 54.9846Z" fill="#5F5E61"/>
<path d="M457.676 46.2252C457.676 46.2252 457.536 41.7084 458.729 38.2784C460.393 33.4936 464.934 32.5543 465.013 32.573C465.013 32.573 465.749 37.6894 463.117 41.6721C460.319 45.9047 457.676 46.225 457.676 46.225L457.676 46.2252Z" fill="#5F5E61"/>
<path d="M455.752 37.7604C455.752 37.7604 454.846 33.9686 455.305 30.3667C455.997 24.9381 460.226 23.7889 460.307 23.7968C460.307 23.7968 461.757 28.8248 459.694 33.1295C457.502 37.7044 455.752 37.7604 455.752 37.7604Z" fill="#5F5E61"/>
<path d="M452.027 28.6716C452.027 28.6716 450.554 25.2416 450.743 21.6157C451.005 16.5835 454.419 14.4575 454.5 14.4546C454.5 14.4546 457.792 17.419 455.901 23.8001C454.754 27.6708 452.027 28.6718 452.027 28.6718L452.027 28.6716Z" fill="#5F5E61"/>
<path d="M447.278 21.1994C447.278 21.1994 445.089 17.8317 444.483 14.2515C443.915 10.8904 445.28 7.22862 445.585 6.89209C445.585 6.89209 449.147 8.45558 449.013 14.456C448.924 18.4917 447.278 21.1994 447.278 21.1994Z" fill="#5F5E61"/>
<path d="M441.46 13.9888C441.46 13.9888 438.85 11.2128 438.17 7.41718C437.606 4.27121 438.174 0.853118 438.767 0C438.767 0 442.172 2.11256 442.419 7.45517C442.606 11.4875 441.73 13.4068 441.46 13.9887L441.46 13.9888Z" fill="#5F5E61"/>
<path d="M437.24 9.56673C437.24 9.56673 432.266 9.74622 429.793 8.31268C427.026 6.70805 424.311 3.22511 424.096 2.20833C424.096 2.20833 428.453 0.30034 432.515 3.78553C435.581 6.41593 437.001 8.97135 437.24 9.56673Z" fill="#5F5E61"/>
<path d="M442.72 15.5602C442.72 15.5602 440.341 12.7781 436.253 12.0593C433.102 11.5053 430.679 12.0168 429.124 12.922C429.124 12.922 431.523 15.9925 436.122 16.4158C440.147 16.7862 442.129 15.8105 442.72 15.5602Z" fill="#5F5E61"/>
<path d="M447.627 21.975C447.627 21.975 445.361 19.3064 441.273 18.5877C438.122 18.0337 436.609 18.602 435.053 19.5071C435.053 19.5071 436.97 22.4358 441.569 22.859C445.593 23.2294 447.036 22.2253 447.627 21.975L447.627 21.975Z" fill="#5F5E61"/>
<path d="M452.41 30.343C452.41 30.343 450.293 27.0539 446.467 25.4466C442.546 23.7995 440.532 24.586 438.845 25.2148C439.383 26.0205 441.584 29.3792 445.153 30.3874C449.041 31.4863 451.785 30.4896 452.41 30.343Z" fill="#5F5E61"/>
<path d="M455.234 37.7751C455.234 37.7751 453.359 34.3433 449.658 32.4666C445.864 30.5436 443.799 31.1841 442.072 31.6908C442.551 32.533 444.506 36.0403 447.993 37.301C451.793 38.6748 454.6 37.8767 455.234 37.7751Z" fill="#5F5E61"/>
<path d="M456.72 46.6074C455.097 44.5292 454.215 42.2951 451.718 40.0715C448.641 37.3319 446.002 38.2053 444.21 38.3822C445.092 40.0366 446.416 42.6537 449.153 44.6256C452.431 46.9872 456.078 46.5895 456.72 46.6075V46.6074Z" fill="#5F5E61"/>
<path d="M456.529 54.7452C455.149 52.4988 454.494 50.7477 452.262 48.259C449.512 45.1929 446.904 45.7373 445.104 45.7129C445.795 47.4554 446.96 50.0622 449.459 52.3275C452.451 55.0406 455.893 54.6557 456.529 54.7452Z" fill="#5F5E61"/>
<path d="M454.75 61.234C452.674 58.0327 452.936 57.3082 450.904 54.6538C448.722 51.8031 445.966 51.8815 444.173 51.7129C444.722 53.5052 445.542 55.9298 447.869 58.3711C450.35 60.9747 452.93 60.6395 454.75 61.234Z" fill="#5F5E61"/>
<path d="M451.341 67.5925C450.032 64.7602 450.258 62.9916 449.058 60.984C447.095 57.7005 445.17 57.5587 443.378 57.3903C444.808 61.4812 444.477 61.5001 446.05 63.9917C447.582 66.4163 449.663 66.7426 451.341 67.5926V67.5925Z" fill="#5F5E61"/>
<path d="M447.222 72.9394C446.476 69.9102 447.233 68.9832 446.437 66.7844C445.135 63.188 443.273 62.6835 441.545 62.1779C441.744 64.5921 441.444 66.1238 442.799 68.7406C443.755 70.5884 445.736 71.7864 447.222 72.9394Z" fill="#5F5E61"/>
<path d="M438.939 66.9923C438.939 66.9923 437.443 69.8769 437.94 73.2202C438.644 77.9572 441.178 78.6669 441.178 78.6669C441.178 78.6669 442.622 76.5138 442.475 72.1452C442.318 67.4788 438.939 66.9922 438.939 66.9922L438.939 66.9923Z" fill="#5F5E61"/>
<path d="M433.537 71.8176C433.537 71.8176 432.04 74.7382 432.368 78.1024C432.787 82.4136 435.151 83.4923 435.151 83.4923C435.151 83.4923 436.641 81.0856 436.704 77.4533C436.801 71.9068 433.537 71.8176 433.537 71.8176Z" fill="#5F5E61"/>
<path d="M587.628 5.50818C585.571 6.88812 583.298 8.59694 581.465 10.5029C578.215 13.8846 574.99 17.697 572.219 21.5115C570.348 24.0884 567.919 27.9987 566.592 30.875C564.826 34.7029 563.78 37.3847 562.811 41.5903C561.446 47.5153 561.634 53.5958 563.021 59.3282C565.061 67.7617 571.59 74.8181 578.115 80.546C583.22 85.0266 590.083 87.9579 596.112 90.1111L596.735 88.4666C590.761 86.3344 584.428 83.4862 579.536 79.1869C573.243 73.6557 567.431 66.9105 564.923 58.8728C563.396 53.98 563.042 48.6118 563.843 43.4132C564.545 38.8592 566.309 34.2952 568.028 30.1455C569.442 26.7343 571.09 24.0769 573.099 21.278C575.648 17.7291 578.448 14.2682 581.425 11.1081C583.352 9.0625 585.929 7.21576 587.999 5.82728L587.628 5.50818Z" fill="#5F5E61"/>
<path d="M585.015 85.085C585.015 85.085 580.78 83.7476 577.419 84.1416C572.083 84.767 571.591 88.0756 571.591 88.0756C571.591 88.0756 573.732 89.4029 578.323 88.8985C583.702 88.3076 585.015 85.0849 585.015 85.0849L585.015 85.085Z" fill="#5F5E61"/>
<path d="M577.802 80.1438C577.802 80.1438 574.233 78.4529 570.849 78.4779C564.991 78.5213 564.639 81.6292 564.639 81.6292C564.639 81.6292 566.76 83.1573 571.452 83.0944C576.863 83.0219 577.802 80.1438 577.802 80.1438Z" fill="#5F5E61"/>
<path d="M572.467 74.9477C572.467 74.9477 569.073 71.977 565.791 71.1554C560.108 69.7332 558.225 73.0359 558.225 73.0359C558.225 73.0359 560.338 75.5671 564.896 76.6789C570.153 77.9609 572.467 74.9477 572.467 74.9477Z" fill="#5F5E61"/>
<path d="M566.442 66.9436C566.442 66.9436 563.54 63.888 559.566 62.6688C554.382 61.0777 551.944 64.2015 551.873 64.2796C551.873 64.2796 553.998 66.9505 558.431 68.1213C564.376 69.6919 566.442 66.9436 566.442 66.9436Z" fill="#5F5E61"/>
<path d="M563.572 60.5739C563.572 60.5739 560.869 56.4628 556.837 54.5223C552.921 52.6362 550.06 54.2424 549.989 54.3053C549.989 54.3053 552.001 57.9775 555.702 59.7371C560.731 62.128 563.573 60.5735 563.573 60.5735L563.572 60.5739Z" fill="#5F5E61"/>
<path d="M562.701 54.9843C561.258 53.6287 561.151 49.9442 559.089 46.9544C556.212 42.7832 551.467 43.0856 551.396 43.1249C551.396 43.1249 551.904 48.3216 555.501 51.4625C559.324 54.8005 562.701 54.9846 562.701 54.9846L562.701 54.9843Z" fill="#5F5E61"/>
<path d="M562.303 46.2248C562.303 46.2248 562.443 41.708 561.25 38.278C559.586 33.4932 555.045 32.5539 554.966 32.5727C554.966 32.5727 554.23 37.689 556.862 41.6717C559.66 45.9043 562.303 46.2247 562.303 46.2247L562.303 46.2248Z" fill="#5F5E61"/>
<path d="M564.226 37.7599C564.226 37.7599 565.132 33.9681 564.673 30.3662C563.981 24.9376 559.752 23.7884 559.671 23.7963C559.671 23.7963 558.221 28.8243 560.284 33.129C562.476 37.7039 564.226 37.7599 564.226 37.7599Z" fill="#5F5E61"/>
<path d="M567.952 28.6713C567.952 28.6713 569.425 25.2413 569.236 21.6154C568.974 16.5831 565.56 14.4571 565.479 14.4542C565.479 14.4542 562.187 17.4187 564.078 23.7997C565.225 27.6705 567.952 28.6714 567.952 28.6714L567.952 28.6713Z" fill="#5F5E61"/>
<path d="M572.692 21.199C572.692 21.199 574.881 17.8313 575.487 14.2511C576.055 10.89 574.69 7.22825 574.385 6.89172C574.385 6.89172 570.823 8.45521 570.957 14.4556C571.046 18.4913 572.692 21.199 572.692 21.199Z" fill="#5F5E61"/>
<path d="M578.516 13.9885C578.516 13.9885 581.126 11.2125 581.806 7.41686C582.369 4.27145 581.801 0.853362 581.208 0.000244141C581.208 0.000244141 577.804 2.11281 577.557 7.45542C577.37 11.4878 578.246 13.407 578.516 13.9889L578.516 13.9885Z" fill="#5F5E61"/>
<path d="M582.741 9.56624C582.741 9.56624 587.715 9.74573 590.187 8.31219C592.954 6.70756 595.67 3.22462 595.884 2.20785C595.884 2.20785 591.527 0.299851 587.465 3.78505C584.4 6.41544 582.979 8.97086 582.741 9.56624Z" fill="#5F5E61"/>
<path d="M577.26 15.5599C577.26 15.5599 579.639 12.7777 583.728 12.0589C586.879 11.5049 589.301 12.0164 590.857 12.9216C590.857 12.9216 588.457 15.9922 583.858 16.4155C579.834 16.7858 577.851 15.8102 577.26 15.5598L577.26 15.5599Z" fill="#5F5E61"/>
<path d="M572.343 21.9745C572.343 21.9745 574.609 19.3059 578.697 18.5872C581.848 18.0332 583.362 18.6015 584.917 19.5067C584.917 19.5067 583.001 22.4354 578.401 22.8585C574.377 23.2289 572.935 22.2248 572.343 21.9745L572.343 21.9745Z" fill="#5F5E61"/>
<path d="M567.571 30.3426C567.571 30.3426 569.687 27.0536 573.513 25.4462C577.435 23.7991 579.449 24.5856 581.135 25.2144C580.597 26.0202 578.396 29.3788 574.828 30.3871C570.939 31.4859 568.196 30.4892 567.571 30.3426Z" fill="#5F5E61"/>
<path d="M564.738 37.7747C564.738 37.7747 566.613 34.3429 570.315 32.4663C574.108 30.5432 576.173 31.1838 577.9 31.6905C577.422 32.5326 575.467 36.0399 571.98 37.3006C568.179 38.6745 565.372 37.8763 564.738 37.7747Z" fill="#5F5E61"/>
<path d="M563.25 46.607C564.873 44.5289 565.755 42.2947 568.252 40.0711C571.329 37.3316 573.968 38.2049 575.76 38.3818C574.878 40.0362 573.554 42.6534 570.817 44.6252C567.54 46.9868 563.892 46.5892 563.25 46.6072V46.607Z" fill="#5F5E61"/>
<path d="M563.452 54.7449C564.832 52.4984 565.486 50.7474 567.719 48.2586C570.469 45.1925 573.076 45.7369 574.876 45.7125C574.185 47.455 573.02 50.0618 570.522 52.3271C567.529 55.0403 564.087 54.6553 563.452 54.7449Z" fill="#5F5E61"/>
<path d="M565.227 61.2336C567.303 58.0323 567.041 57.3078 569.073 54.6535C571.255 51.8028 574.011 51.8811 575.804 51.7125C575.255 53.5049 574.435 55.9294 572.108 58.3708C569.627 60.9743 567.047 60.6391 565.227 61.2336H565.227Z" fill="#5F5E61"/>
<path d="M568.637 67.5921C569.946 64.7599 569.72 62.9912 570.92 60.9837C572.883 57.7001 574.808 57.5584 576.6 57.3899C575.17 61.4808 575.501 61.4997 573.928 63.9914C572.396 66.416 570.316 66.7423 568.637 67.5922V67.5921Z" fill="#5F5E61"/>
<path d="M572.75 72.939C573.495 69.9098 572.738 68.9829 573.534 66.784C574.836 63.1876 576.699 62.6832 578.426 62.1775C578.228 64.5917 578.527 66.1234 577.173 68.7402C576.216 70.5881 574.235 71.786 572.75 72.939Z" fill="#5F5E61"/>
<path d="M581.038 66.9918C581.038 66.9918 582.534 69.8765 582.037 73.2197C581.333 77.9567 578.798 78.6664 578.798 78.6664C578.798 78.6664 577.355 76.5134 577.502 72.1447C577.658 67.4783 581.038 66.9917 581.038 66.9917L581.038 66.9918Z" fill="#5F5E61"/>
<path d="M586.438 71.8173C586.438 71.8173 587.935 74.7379 587.607 78.102C587.187 82.4132 584.823 83.4919 584.823 83.4919C584.823 83.4919 583.334 81.0852 583.271 77.4529C583.174 71.9064 586.438 71.8174 586.438 71.8174L586.438 71.8173Z" fill="#5F5E61"/>
<path d="M626.986 35.4738H617.834V32.1458L625.01 20.7058H630.314V32.5618H632.81V35.4738H630.314V39.0098H626.986V35.4738ZM626.908 23.0198L620.954 32.8738C620.824 33.0818 620.746 33.2898 620.954 33.4198C621.162 33.5498 621.344 33.3678 621.448 33.2378C621.864 32.7698 622.28 32.5618 623.424 32.5618H626.986V25.1778C626.986 24.5018 627.064 24.0338 627.298 23.4618C627.428 23.1498 627.584 22.8378 627.35 22.7338C627.142 22.6298 627.012 22.8638 626.908 23.0198ZM635.319 39.0098V35.2658H639.063V39.0098H635.319ZM655.693 28.4278C655.693 34.9018 653.613 39.2178 648.335 39.2178C644.851 39.2178 642.173 37.0078 641.965 34.2258H645.241C645.475 35.2398 646.255 36.0978 648.309 36.0978C650.961 36.0978 651.897 34.3818 652.053 32.9518C652.079 32.6138 652.183 32.2758 652.313 32.0158C652.495 31.6258 652.989 31.3138 652.651 31.1058C652.469 31.0018 652.235 31.2878 652.157 31.3918C651.377 32.2498 650.103 33.2118 647.815 33.2118C643.707 33.2118 641.549 30.6378 641.549 27.1278C641.549 23.3838 644.201 20.4978 648.517 20.4978C652.859 20.4978 655.693 23.0198 655.693 28.4278ZM652.365 26.9458C652.365 24.9958 651.013 23.6178 648.621 23.6178C646.229 23.6178 644.877 24.9958 644.877 26.9458C644.877 29.2598 646.229 30.4818 648.621 30.4818C651.013 30.4818 652.365 28.8958 652.365 26.9458ZM668.388 18.6258L659.652 41.0898H657.364L666.1 18.6258H668.388ZM674.093 27.7518C677.005 25.4118 684.207 25.9838 684.207 32.7698C684.207 36.3578 681.633 39.2178 676.875 39.2178C672.741 39.2178 670.063 36.6438 670.063 33.1858H673.339C673.339 34.6938 674.561 36.0978 677.083 36.0978C679.553 36.0978 680.879 34.8238 680.879 32.7698C680.879 30.8198 679.813 29.4418 677.213 29.4158C675.315 29.3898 674.327 30.0918 673.547 31.1058H670.479L671.727 20.7058H682.569V23.8258H674.431L674.249 25.6198C674.197 26.1658 674.067 26.6338 673.807 27.1278C673.625 27.4658 673.339 27.6478 673.573 27.8818C673.755 28.0638 674.041 27.8038 674.093 27.7518Z" fill="#663AFF"/>
<path d="M619.603 60.9233H612.395L610.176 54.0098L607.944 60.9233L600.735 60.9101L606.565 65.188L604.333 72.1016L610.163 67.8236L615.992 72.1016L613.773 65.188L619.603 60.9233Z" fill="white"/>
<path d="M614.272 66.751L613.773 65.1881L610.176 67.8237L614.272 66.751Z" fill="#5F5E61"/>
<path d="M622.656 58.9677V57.3837H632.448V58.9677H628.488V70.0557H626.616V58.9677H622.656ZM635.367 62.8197C635.943 61.3437 636.465 60.6957 638.787 60.6957V62.4597C636.105 62.2797 635.331 63.2337 635.331 65.6457V70.0557H633.603V60.8397H635.331V61.4517C635.331 61.8297 635.295 62.1177 635.133 62.6577C635.097 62.8017 635.043 62.9457 635.187 62.9817C635.277 62.9997 635.331 62.9097 635.367 62.8197ZM643.204 70.1997C641.08 70.1997 639.784 69.0117 639.784 66.3117V60.8397H641.512V65.9517C641.512 68.0937 642.43 68.6877 643.636 68.6877C644.968 68.6877 646.408 67.3377 646.408 65.1417V60.8397H648.136V70.0557H646.408V69.4437C646.408 69.0657 646.444 68.6877 646.606 68.2197C646.66 68.0577 646.732 67.8957 646.588 67.8417C646.48 67.8057 646.426 67.9317 646.39 68.0037C645.958 68.8677 644.86 70.1997 643.204 70.1997ZM649.726 66.8517H651.418C651.436 67.5537 652.012 68.6877 653.812 68.6877C655.576 68.6877 656.062 67.9857 656.062 67.3917C656.062 66.5637 655.288 66.3117 653.182 66.0957C650.77 65.8437 650.014 64.7457 650.014 63.5397C650.014 62.1537 651.274 60.6957 653.794 60.6957C656.116 60.6957 657.376 62.0277 657.502 63.7557H655.81C655.756 63.1617 655.36 62.2077 653.74 62.2077C652.282 62.2077 651.742 62.8017 651.742 63.4137C651.742 64.0077 652.084 64.4037 654.082 64.6197C656.566 64.8897 657.79 65.6097 657.79 67.1217C657.79 68.9937 656.26 70.1997 653.74 70.1997C651.238 70.1997 649.816 68.8857 649.726 66.8517ZM664.556 60.8397V62.3517H661.964V67.1757C661.964 68.2197 662.18 68.5437 663.188 68.5437H664.556V70.0557H663.044C661.136 70.0557 660.236 69.3537 660.236 67.3557V62.3517H658.508V60.8397H660.236V58.2477H661.964V60.8397H664.556ZM666.439 60.8397H668.167V61.5597C668.167 61.9017 668.113 62.1717 667.987 62.5497C667.933 62.6937 667.825 62.8737 667.987 62.9277C668.131 62.9817 668.185 62.8017 668.203 62.7477C668.743 61.5597 669.823 60.6957 671.299 60.6957C673.693 60.6957 675.367 62.7117 675.367 65.4477C675.367 68.1837 673.693 70.1997 671.299 70.1997C669.859 70.1997 668.761 69.3537 668.203 68.1117C668.185 68.0577 668.131 67.9137 668.023 67.9497C667.843 68.0037 667.933 68.1657 667.987 68.3097C668.113 68.7057 668.167 68.9577 668.167 69.2817V73.5117H666.439V60.8397ZM670.939 68.6157C672.739 68.6157 673.639 67.1577 673.639 65.4477C673.639 63.7377 672.739 62.2797 670.939 62.2797C669.301 62.2797 668.167 63.7377 668.167 65.4477C668.167 67.1577 669.301 68.6157 670.939 68.6157ZM676.879 59.1117V57.0957H678.751V59.1117H676.879ZM676.951 60.8397H678.679V70.0557H676.951V60.8397ZM682.563 57.0957V70.0557H680.835V57.0957H682.563ZM688.467 60.6957C691.257 60.6957 692.931 62.8377 692.931 65.4477C692.931 68.0577 691.257 70.1997 688.467 70.1997C685.677 70.1997 684.003 68.0577 684.003 65.4477C684.003 62.8377 685.677 60.6957 688.467 60.6957ZM688.467 68.6157C690.195 68.6157 691.203 67.1937 691.203 65.4477C691.203 63.7017 690.195 62.2797 688.467 62.2797C686.739 62.2797 685.731 63.7017 685.731 65.4477C685.731 67.1937 686.739 68.6157 688.467 68.6157ZM699.256 60.8397V62.3517H696.664V67.1757C696.664 68.2197 696.88 68.5437 697.888 68.5437H699.256V70.0557H697.744C695.836 70.0557 694.936 69.3537 694.936 67.3557V62.3517H693.208V60.8397H694.936V58.2477H696.664V60.8397H699.256Z" fill="#FFFEF5"/>
<path d="M713.707 5.50854C715.764 6.88848 718.037 8.5973 719.869 10.5033C723.12 13.8849 726.344 17.6973 729.115 21.5119C730.987 24.0888 733.416 27.999 734.743 30.8754C736.509 34.7033 737.554 37.385 738.524 41.5907C739.889 47.5157 739.701 53.5962 738.314 59.3286C736.274 67.7621 729.744 74.8185 723.219 80.5464C718.115 85.027 711.252 87.9583 705.222 90.1114L704.603 88.4681C710.579 86.3345 716.912 83.4867 721.804 79.187C728.096 73.6566 733.908 66.9118 736.417 58.8729C737.943 53.98 738.298 48.6113 737.497 43.4134C736.795 38.8594 735.03 34.2954 733.311 30.1457C731.898 26.7344 730.25 24.0771 728.24 21.2782C725.692 17.7293 722.891 14.2683 719.914 11.1082C717.987 9.06264 715.41 7.2159 713.34 5.82742L713.707 5.50854Z" fill="#5F5E61"/>
<path d="M716.329 85.0853C716.329 85.0853 720.564 83.748 723.925 84.142C729.261 84.7674 729.753 88.076 729.753 88.076C729.753 88.076 727.612 89.4033 723.021 88.8989C717.642 88.308 716.329 85.0853 716.329 85.0853Z" fill="#5F5E61"/>
<path d="M723.531 80.1442C723.531 80.1442 727.1 78.4532 730.484 78.4783C736.343 78.5216 736.694 81.6296 736.694 81.6296C736.694 81.6296 734.573 83.1576 729.881 83.0948C724.471 83.0223 723.531 80.1442 723.531 80.1442Z" fill="#5F5E61"/>
<path d="M728.877 74.9481C728.877 74.9481 732.271 71.9773 735.553 71.1558C741.236 69.7336 743.118 73.0363 743.118 73.0363C743.118 73.0363 741.006 75.5675 736.447 76.6793C731.191 77.9613 728.877 74.9481 728.877 74.9481Z" fill="#5F5E61"/>
<path d="M734.897 66.944C734.897 66.944 737.8 63.8884 741.773 62.6692C746.958 61.078 749.395 64.2019 749.466 64.28C749.466 64.28 747.341 66.9508 742.909 68.1217C736.963 69.6923 734.898 66.944 734.898 66.944H734.897Z" fill="#5F5E61"/>
<path d="M737.767 60.5743C737.767 60.5743 740.47 56.4631 744.502 54.5226C748.419 52.6372 751.28 54.2429 751.351 54.3062C751.351 54.3062 749.339 57.9783 745.638 59.7379C740.609 62.1288 737.767 60.5743 737.767 60.5743Z" fill="#5F5E61"/>
<path d="M738.634 54.9846C740.076 53.6292 740.184 49.9448 742.246 46.9546C745.123 42.7833 749.868 43.0859 749.939 43.1249C749.939 43.1249 749.431 48.3216 745.833 51.4625C742.01 54.8005 738.634 54.9846 738.634 54.9846Z" fill="#5F5E61"/>
<path d="M739.039 46.2252C739.039 46.2252 738.899 41.7084 740.091 38.2784C741.755 33.4936 746.296 32.5543 746.375 32.573C746.375 32.573 747.112 37.6894 744.479 41.6721C741.682 45.9047 739.039 46.225 739.039 46.225L739.039 46.2252Z" fill="#5F5E61"/>
<path d="M737.114 37.7604C737.114 37.7604 736.208 33.9686 736.667 30.3667C737.359 24.9381 741.589 23.7889 741.669 23.7968C741.669 23.7968 743.119 28.8248 741.057 33.1295C738.865 37.7044 737.114 37.7604 737.114 37.7604Z" fill="#5F5E61"/>
<path d="M733.389 28.6716C733.389 28.6716 731.916 25.2416 732.105 21.6157C732.367 16.5835 735.781 14.4575 735.862 14.4546C735.862 14.4546 739.154 17.419 737.263 23.8001C736.116 27.6708 733.389 28.6718 733.389 28.6718L733.389 28.6716Z" fill="#5F5E61"/>
<path d="M728.64 21.1994C728.64 21.1994 726.451 17.8317 725.846 14.2515C725.277 10.8904 726.643 7.22862 726.947 6.89209C726.947 6.89209 730.509 8.45558 730.376 14.456C730.286 18.4917 728.64 21.1994 728.64 21.1994Z" fill="#5F5E61"/>
<path d="M722.822 13.9888C722.822 13.9888 720.212 11.2128 719.532 7.41718C718.969 4.27121 719.536 0.853118 720.13 0C720.13 0 723.534 2.11256 723.781 7.45517C723.968 11.4875 723.092 13.4068 722.822 13.9887L722.822 13.9888Z" fill="#5F5E61"/>
<path d="M718.602 9.56673C718.602 9.56673 713.628 9.74622 711.156 8.31268C708.389 6.70805 705.673 3.22511 705.459 2.20833C705.459 2.20833 709.815 0.30034 713.877 3.78553C716.943 6.41593 718.363 8.97135 718.602 9.56673Z" fill="#5F5E61"/>
<path d="M724.083 15.5602C724.083 15.5602 721.703 12.7781 717.615 12.0593C714.464 11.5053 712.041 12.0168 710.486 12.922C710.486 12.922 712.885 15.9925 717.485 16.4158C721.509 16.7862 723.491 15.8105 724.083 15.5602Z" fill="#5F5E61"/>
<path d="M728.989 21.975C728.989 21.975 726.724 19.3064 722.635 18.5877C719.484 18.0337 717.971 18.602 716.416 19.5071C716.416 19.5071 718.332 22.4358 722.931 22.859C726.956 23.2294 728.398 22.2253 728.989 21.975L728.989 21.975Z" fill="#5F5E61"/>
<path d="M733.772 30.343C733.772 30.343 731.656 27.0539 727.829 25.4466C723.908 23.7995 721.894 24.586 720.208 25.2148C720.745 26.0205 722.946 29.3792 726.515 30.3874C730.404 31.4863 733.147 30.4896 733.772 30.343Z" fill="#5F5E61"/>
<path d="M736.597 37.7751C736.597 37.7751 734.721 34.3433 731.02 32.4666C727.227 30.5436 725.162 31.1841 723.434 31.6908C723.913 32.533 725.868 36.0403 729.355 37.301C733.155 38.6748 735.963 37.8767 736.597 37.7751Z" fill="#5F5E61"/>
<path d="M738.082 46.6074C736.459 44.5292 735.577 42.2951 733.08 40.0715C730.004 37.3319 727.364 38.2053 725.573 38.3822C726.454 40.0366 727.779 42.6537 730.515 44.6256C733.793 46.9872 737.44 46.5895 738.082 46.6075V46.6074Z" fill="#5F5E61"/>
<path d="M737.891 54.7452C736.511 52.4988 735.856 50.7477 733.624 48.259C730.874 45.1929 728.267 45.7373 726.467 45.7129C727.158 47.4554 728.322 50.0622 730.821 52.3275C733.813 55.0406 737.255 54.6557 737.891 54.7452Z" fill="#5F5E61"/>
<path d="M736.113 61.234C734.037 58.0327 734.299 57.3082 732.267 54.6538C730.084 51.8031 727.328 51.8815 725.536 51.7129C726.085 53.5052 726.905 55.9298 729.231 58.3711C731.712 60.9747 734.293 60.6395 736.113 61.234Z" fill="#5F5E61"/>
<path d="M732.703 67.5925C731.394 64.7602 731.62 62.9916 730.42 60.984C728.457 57.7005 726.533 57.5587 724.74 57.3903C726.17 61.4812 725.839 61.5001 727.413 63.9917C728.944 66.4163 731.025 66.7426 732.703 67.5926V67.5925Z" fill="#5F5E61"/>
<path d="M728.584 72.9394C727.838 69.9102 728.596 68.9832 727.799 66.7844C726.497 63.188 724.635 62.6835 722.907 62.1779C723.106 64.5921 722.806 66.1238 724.161 68.7406C725.118 70.5884 727.098 71.7864 728.584 72.9394Z" fill="#5F5E61"/>
<path d="M720.301 66.9923C720.301 66.9923 718.805 69.8769 719.302 73.2202C720.006 77.9572 722.541 78.6669 722.541 78.6669C722.541 78.6669 723.984 76.5138 723.837 72.1452C723.681 67.4788 720.301 66.9922 720.301 66.9922L720.301 66.9923Z" fill="#5F5E61"/>
<path d="M714.899 71.8176C714.899 71.8176 713.402 74.7382 713.73 78.1024C714.15 82.4136 716.514 83.4923 716.514 83.4923C716.514 83.4923 718.003 81.0856 718.066 77.4533C718.163 71.9068 714.899 71.8176 714.899 71.8176Z" fill="#5F5E61"/>
<path d="M868.99 5.50818C866.933 6.88812 864.66 8.59694 862.828 10.5029C859.577 13.8846 856.353 17.697 853.582 21.5115C851.71 24.0884 849.281 27.9987 847.954 30.875C846.188 34.7029 845.142 37.3847 844.173 41.5903C842.808 47.5153 842.996 53.5958 844.383 59.3282C846.423 67.7617 852.953 74.8181 859.478 80.546C864.582 85.0266 871.445 87.9579 877.475 90.1111L878.098 88.4666C872.123 86.3344 865.791 83.4862 860.899 79.1869C854.605 73.6557 848.793 66.9105 846.286 58.8728C844.758 53.98 844.404 48.6118 845.205 43.4132C845.907 38.8592 847.672 34.2952 849.391 30.1455C850.804 26.7343 852.452 24.0769 854.462 21.278C857.01 17.7291 859.811 14.2682 862.787 11.1081C864.714 9.0625 867.292 7.21576 869.361 5.82728L868.99 5.50818Z" fill="#5F5E61"/>
<path d="M866.378 85.085C866.378 85.085 862.142 83.7476 858.781 84.1416C853.445 84.767 852.953 88.0756 852.953 88.0756C852.953 88.0756 855.094 89.4029 859.685 88.8985C865.064 88.3076 866.377 85.0849 866.377 85.0849L866.378 85.085Z" fill="#5F5E61"/>
<path d="M859.165 80.1438C859.165 80.1438 855.595 78.4529 852.211 78.4779C846.353 78.5213 846.002 81.6292 846.002 81.6292C846.002 81.6292 848.122 83.1573 852.814 83.0944C858.225 83.0219 859.165 80.1438 859.165 80.1438Z" fill="#5F5E61"/>
<path d="M853.829 74.9477C853.829 74.9477 850.436 71.977 847.153 71.1554C841.47 69.7332 839.588 73.0359 839.588 73.0359C839.588 73.0359 841.7 75.5671 846.259 76.6789C851.515 77.9609 853.829 74.9477 853.829 74.9477Z" fill="#5F5E61"/>
<path d="M847.804 66.9436C847.804 66.9436 844.902 63.888 840.929 62.6688C835.744 61.0777 833.307 64.2015 833.236 64.2796C833.236 64.2796 835.36 66.9505 839.793 68.1213C845.738 69.6919 847.804 66.9436 847.804 66.9436Z" fill="#5F5E61"/>
<path d="M844.934 60.5739C844.934 60.5739 842.231 56.4628 838.2 54.5223C834.283 52.6362 831.422 54.2424 831.351 54.3053C831.351 54.3053 833.363 57.9775 837.064 59.7371C842.093 62.128 844.935 60.5735 844.935 60.5735L844.934 60.5739Z" fill="#5F5E61"/>
<path d="M844.063 54.9843C842.621 53.6287 842.513 49.9442 840.451 46.9544C837.574 42.7832 832.829 43.0856 832.758 43.1249C832.758 43.1249 833.266 48.3216 836.863 51.4625C840.687 54.8005 844.063 54.9846 844.063 54.9846L844.063 54.9843Z" fill="#5F5E61"/>
<path d="M843.665 46.2248C843.665 46.2248 843.805 41.708 842.612 38.278C840.949 33.4932 836.407 32.5539 836.328 32.5727C836.328 32.5727 835.592 37.689 838.224 41.6717C841.022 45.9043 843.665 46.2247 843.665 46.2247L843.665 46.2248Z" fill="#5F5E61"/>
<path d="M845.588 37.7599C845.588 37.7599 846.494 33.9681 846.035 30.3662C845.344 24.9376 841.114 23.7884 841.033 23.7963C841.033 23.7963 839.583 28.8243 841.646 33.129C843.838 37.7039 845.588 37.7599 845.588 37.7599Z" fill="#5F5E61"/>
<path d="M849.314 28.6713C849.314 28.6713 850.787 25.2413 850.599 21.6154C850.337 16.5831 846.923 14.4571 846.842 14.4542C846.842 14.4542 843.55 17.4187 845.44 23.7997C846.587 27.6705 849.315 28.6714 849.315 28.6714L849.314 28.6713Z" fill="#5F5E61"/>
<path d="M854.054 21.199C854.054 21.199 856.243 17.8313 856.849 14.2511C857.417 10.89 856.052 7.22825 855.747 6.89172C855.747 6.89172 852.185 8.45521 852.319 14.4556C852.409 18.4913 854.054 21.199 854.054 21.199Z" fill="#5F5E61"/>
<path d="M859.878 13.9885C859.878 13.9885 862.488 11.2125 863.168 7.41686C863.731 4.27145 863.164 0.853362 862.571 0.000244141C862.571 0.000244141 859.166 2.11281 858.919 7.45542C858.732 11.4878 859.608 13.407 859.878 13.9889L859.878 13.9885Z" fill="#5F5E61"/>
<path d="M864.103 9.56624C864.103 9.56624 869.077 9.74573 871.549 8.31219C874.316 6.70756 877.032 3.22462 877.246 2.20785C877.246 2.20785 872.89 0.299851 868.828 3.78505C865.762 6.41544 864.342 8.97086 864.103 9.56624Z" fill="#5F5E61"/>
<path d="M858.622 15.5599C858.622 15.5599 861.002 12.7777 865.09 12.0589C868.241 11.5049 870.664 12.0164 872.219 12.9216C872.219 12.9216 869.82 15.9922 865.22 16.4155C861.196 16.7858 859.214 15.8102 858.622 15.5598L858.622 15.5599Z" fill="#5F5E61"/>
<path d="M853.706 21.9745C853.706 21.9745 855.971 19.3059 860.059 18.5872C863.211 18.0332 864.724 18.6015 866.279 19.5067C866.279 19.5067 864.363 22.4354 859.764 22.8585C855.739 23.2289 854.297 22.2248 853.706 21.9745L853.706 21.9745Z" fill="#5F5E61"/>
<path d="M848.933 30.3426C848.933 30.3426 851.049 27.0536 854.876 25.4462C858.797 23.7991 860.811 24.5856 862.497 25.2144C861.96 26.0202 859.759 29.3788 856.19 30.3871C852.301 31.4859 849.558 30.4892 848.933 30.3426Z" fill="#5F5E61"/>
<path d="M846.1 37.7747C846.1 37.7747 847.976 34.3429 851.677 32.4663C855.47 30.5432 857.536 31.1838 859.263 31.6905C858.784 32.5326 856.829 36.0399 853.342 37.3006C849.542 38.6745 846.734 37.8763 846.1 37.7747Z" fill="#5F5E61"/>
<path d="M844.613 46.607C846.235 44.5289 847.118 42.2947 849.615 40.0711C852.691 37.3316 855.331 38.2049 857.122 38.3818C856.24 40.0362 854.916 42.6534 852.18 44.6252C848.902 46.9868 845.254 46.5892 844.613 46.6072V46.607Z" fill="#5F5E61"/>
<path d="M844.814 54.7449C846.194 52.4984 846.849 50.7474 849.081 48.2586C851.831 45.1925 854.438 45.7369 856.238 45.7125C855.547 47.455 854.383 50.0618 851.884 52.3271C848.891 55.0403 845.45 54.6553 844.814 54.7449Z" fill="#5F5E61"/>
<path d="M846.589 61.2336C848.665 58.0323 848.403 57.3078 850.435 54.6535C852.617 51.8028 855.374 51.8811 857.166 51.7125C856.617 53.5049 855.797 55.9294 853.471 58.3708C850.99 60.9743 848.409 60.6391 846.589 61.2336H846.589Z" fill="#5F5E61"/>
<path d="M850 67.5921C851.309 64.7599 851.083 62.9912 852.283 60.9837C854.246 57.7001 856.17 57.5584 857.962 57.3899C856.533 61.4808 856.864 61.4997 855.29 63.9914C853.759 66.416 851.678 66.7423 850 67.5922V67.5921Z" fill="#5F5E61"/>
<path d="M854.112 72.939C854.858 69.9098 854.1 68.9829 854.897 66.784C856.199 63.1876 858.061 62.6832 859.788 62.1775C859.59 64.5917 859.89 66.1234 858.535 68.7402C857.578 70.5881 855.598 71.786 854.112 72.939Z" fill="#5F5E61"/>
<path d="M862.4 66.9918C862.4 66.9918 863.896 69.8765 863.399 73.2197C862.695 77.9567 860.161 78.6664 860.161 78.6664C860.161 78.6664 858.717 76.5134 858.864 72.1447C859.021 67.4783 862.4 66.9917 862.4 66.9917L862.4 66.9918Z" fill="#5F5E61"/>
<path d="M867.8 71.8173C867.8 71.8173 869.297 74.7379 868.97 78.102C868.55 82.4132 866.186 83.4919 866.186 83.4919C866.186 83.4919 864.697 81.0852 864.633 77.4529C864.536 71.9064 867.8 71.8174 867.8 71.8174L867.8 71.8173Z" fill="#5F5E61"/>
<path d="M895.676 19.9377C894.618 19.903 893.639 19.799 892.738 19.6257C891.854 19.4523 891.082 19.2183 890.424 18.9237V16.0117C891.082 16.3237 891.897 16.6097 892.868 16.8697C893.838 17.1297 894.774 17.277 895.676 17.3117V12.8917C894.722 12.545 893.908 12.207 893.232 11.8777C892.556 11.531 892.01 11.167 891.594 10.7857C891.195 10.387 890.892 9.945 890.684 9.45966C890.493 8.97433 890.398 8.41966 890.398 7.79566C890.398 6.929 890.614 6.18366 891.048 5.55966C891.498 4.93566 892.122 4.44166 892.92 4.07766C893.717 3.69633 894.636 3.471 895.676 3.40166V1.32166H897.392V3.34966C898.345 3.38433 899.229 3.497 900.044 3.68766C900.858 3.87833 901.638 4.12966 902.384 4.44166L901.37 7.01566C900.728 6.75566 900.061 6.54766 899.368 6.39166C898.692 6.21833 898.033 6.10566 897.392 6.05366V10.3697C898.397 10.699 899.307 11.063 900.122 11.4617C900.954 11.8603 901.604 12.363 902.072 12.9697C902.557 13.559 902.8 14.3303 902.8 15.2837C902.8 16.5317 902.34 17.563 901.422 18.3777C900.503 19.1923 899.16 19.6863 897.392 19.8597V22.5637H895.676V19.9377ZM897.392 17.2077C898.137 17.1037 898.683 16.9043 899.03 16.6097C899.394 16.315 899.576 15.9337 899.576 15.4657C899.576 15.1537 899.498 14.885 899.342 14.6597C899.203 14.4343 898.969 14.235 898.64 14.0617C898.328 13.871 897.912 13.689 897.392 13.5157V17.2077ZM895.676 6.10566C895.225 6.15766 894.844 6.253 894.532 6.39166C894.237 6.53033 894.012 6.71233 893.856 6.93766C893.7 7.163 893.622 7.423 893.622 7.71766C893.622 8.02966 893.682 8.307 893.804 8.54966C893.942 8.775 894.159 8.983 894.454 9.17366C894.766 9.36433 895.173 9.54633 895.676 9.71966V6.10566ZM908.761 2.75166H911.673V21.0557H908.345V8.67966H904.185V6.18366C908.137 6.18366 908.397 5.40366 908.761 2.75166ZM919.379 21.0557H915.843V2.75166H921.979L925.775 16.5837C925.905 17.0517 925.931 17.7277 925.931 18.3517C925.931 18.5597 926.035 18.6637 926.243 18.6637C926.451 18.6637 926.555 18.5597 926.555 18.3517C926.555 17.7277 926.581 17.0517 926.711 16.5837L930.507 2.75166H936.643V21.0557H933.107V7.35366C933.107 6.52166 933.315 5.87166 933.549 5.16966C933.627 4.93566 933.549 4.77966 933.315 4.72766C933.185 4.70166 933.055 4.77966 933.003 4.96166L928.427 21.0557H924.059L919.483 4.96166C919.431 4.77966 919.301 4.70166 919.171 4.72766C918.937 4.77966 918.859 4.93566 918.937 5.16966C919.171 5.87166 919.379 6.52166 919.379 7.35366V21.0557ZM946.734 10.6817H951.752V13.0997H946.734V18.1697H944.29V13.0997H939.298V10.6817H944.29V5.55966H946.734V10.6817Z" fill="#663AFF"/>
<path d="M893.413 50.0557H891.541V37.3837H899.893V38.9677H893.413V42.9277H898.741V44.5117H893.413V50.0557ZM904.604 50.1997C902.48 50.1997 901.184 49.0117 901.184 46.3117V40.8397H902.912V45.9517C902.912 48.0937 903.83 48.6877 905.036 48.6877C906.368 48.6877 907.808 47.3377 907.808 45.1417V40.8397H909.536V50.0557H907.808V49.4437C907.808 49.0657 907.844 48.6877 908.006 48.2197C908.06 48.0577 908.132 47.8957 907.988 47.8417C907.88 47.8057 907.826 47.9317 907.79 48.0037C907.358 48.8677 906.26 50.1997 904.604 50.1997ZM916.635 40.6957C918.759 40.6957 920.055 41.8837 920.055 44.5837V50.0557H918.327V44.9437C918.327 42.8017 917.409 42.2077 916.203 42.2077C914.871 42.2077 913.431 43.5577 913.431 45.7537V50.0557H911.703V40.8397H913.431V41.4517C913.431 41.8297 913.395 42.2077 913.233 42.6757C913.179 42.8377 913.107 43.0177 913.251 43.0537C913.359 43.0897 913.413 42.9637 913.449 42.8917C913.809 41.9917 914.979 40.6957 916.635 40.6957ZM928.698 41.5597V37.0957H930.426V50.0557H928.698V49.2817C928.698 48.9577 928.734 48.7057 928.878 48.3097C928.932 48.1657 929.022 48.0037 928.842 47.9497C928.734 47.9137 928.68 48.0577 928.662 48.1117C928.23 49.4077 927.006 50.1997 925.566 50.1997C923.172 50.1997 921.498 48.1837 921.498 45.4477C921.498 42.7117 923.172 40.6957 925.566 40.6957C927.042 40.6957 928.248 41.5057 928.662 42.7477C928.68 42.8017 928.734 42.9817 928.878 42.9277C929.04 42.8737 928.932 42.6937 928.878 42.5497C928.734 42.1717 928.698 41.9017 928.698 41.5597ZM925.926 48.6157C927.564 48.6157 928.698 47.1577 928.698 45.4477C928.698 43.7377 927.564 42.2797 925.926 42.2797C924.126 42.2797 923.226 43.7377 923.226 45.4477C923.226 47.1577 924.126 48.6157 925.926 48.6157ZM940.509 45.3217C940.509 45.5737 940.491 45.7537 940.455 45.9517H933.579C933.705 47.4277 934.713 48.6157 936.387 48.6157C937.629 48.6157 938.241 48.0037 938.565 46.9417H940.347C939.969 48.6517 938.709 50.1997 936.351 50.1997C933.453 50.1997 931.869 48.0577 931.869 45.4477C931.869 42.6757 933.669 40.6957 936.315 40.6957C938.367 40.6957 940.509 42.0457 940.509 45.3217ZM933.669 44.5117H938.781C938.673 43.1617 937.809 42.2077 936.405 42.2077C934.677 42.2077 933.921 43.2697 933.669 44.5117ZM948.93 41.5597V37.0957H950.658V50.0557H948.93V49.2817C948.93 48.9577 948.966 48.7057 949.11 48.3097C949.164 48.1657 949.254 48.0037 949.074 47.9497C948.966 47.9137 948.912 48.0577 948.894 48.1117C948.462 49.4077 947.238 50.1997 945.798 50.1997C943.404 50.1997 941.73 48.1837 941.73 45.4477C941.73 42.7117 943.404 40.6957 945.798 40.6957C947.274 40.6957 948.48 41.5057 948.894 42.7477C948.912 42.8017 948.966 42.9817 949.11 42.9277C949.272 42.8737 949.164 42.6937 949.11 42.5497C948.966 42.1717 948.93 41.9017 948.93 41.5597ZM946.158 48.6157C947.796 48.6157 948.93 47.1577 948.93 45.4477C948.93 43.7377 947.796 42.2797 946.158 42.2797C944.358 42.2797 943.458 43.7377 943.458 45.4477C943.458 47.1577 944.358 48.6157 946.158 48.6157ZM898.131 58.8397V60.3517H895.539V65.1757C895.539 66.2197 895.755 66.5437 896.763 66.5437H898.131V68.0557H896.619C894.711 68.0557 893.811 67.3537 893.811 65.3557V60.3517H892.083V58.8397H893.811V56.2477H895.539V58.8397H898.131ZM901.777 60.8197C902.353 59.3437 902.875 58.6957 905.197 58.6957V60.4597C902.515 60.2797 901.741 61.2337 901.741 63.6457V68.0557H900.013V58.8397H901.741V59.4517C901.741 59.8297 901.705 60.1177 901.543 60.6577C901.507 60.8017 901.453 60.9457 901.597 60.9817C901.687 60.9997 901.741 60.9097 901.777 60.8197ZM905.625 65.4817C905.625 63.3757 907.173 62.7277 908.937 62.6017C910.593 62.4757 912.267 62.6737 912.249 61.7197C912.231 60.9637 911.799 60.2077 909.909 60.2077C908.289 60.2077 907.731 60.8197 907.605 61.7197H905.913C906.237 59.6137 907.857 58.6957 909.981 58.6957C912.051 58.6957 913.977 59.4157 913.977 62.7997V68.0557H912.249V67.1737C912.249 66.8317 912.285 66.5617 912.447 66.0937C912.483 65.9497 912.555 65.7877 912.429 65.7337C912.285 65.6797 912.249 65.8237 912.213 65.9137C911.691 67.2817 910.467 68.1997 908.793 68.1997C907.047 68.1997 905.625 67.0477 905.625 65.4817ZM912.249 63.0877C911.691 63.7717 910.449 63.7897 909.045 63.9877C907.929 64.1497 907.353 64.5457 907.353 65.3917C907.353 66.1297 907.965 66.8137 909.459 66.6157C910.863 66.4357 912.231 65.4097 912.249 63.0877ZM922.756 59.5597V55.0957H924.484V68.0557H922.756V67.2817C922.756 66.9577 922.792 66.7057 922.936 66.3097C922.99 66.1657 923.08 66.0037 922.9 65.9497C922.792 65.9137 922.738 66.0577 922.72 66.1117C922.288 67.4077 921.064 68.1997 919.624 68.1997C917.23 68.1997 915.556 66.1837 915.556 63.4477C915.556 60.7117 917.23 58.6957 919.624 58.6957C921.1 58.6957 922.306 59.5057 922.72 60.7477C922.738 60.8017 922.792 60.9817 922.936 60.9277C923.098 60.8737 922.99 60.6937 922.936 60.5497C922.792 60.1717 922.756 59.9017 922.756 59.5597ZM919.984 66.6157C921.622 66.6157 922.756 65.1577 922.756 63.4477C922.756 61.7377 921.622 60.2797 919.984 60.2797C918.184 60.2797 917.284 61.7377 917.284 63.4477C917.284 65.1577 918.184 66.6157 919.984 66.6157ZM926.572 57.1117V55.0957H928.444V57.1117H926.572ZM926.644 58.8397H928.372V68.0557H926.644V58.8397ZM935.461 58.6957C937.585 58.6957 938.881 59.8837 938.881 62.5837V68.0557H937.153V62.9437C937.153 60.8017 936.235 60.2077 935.029 60.2077C933.697 60.2077 932.257 61.5577 932.257 63.7537V68.0557H930.529V58.8397H932.257V59.4517C932.257 59.8297 932.221 60.2077 932.059 60.6757C932.005 60.8377 931.933 61.0177 932.077 61.0537C932.185 61.0897 932.239 60.9637 932.275 60.8917C932.635 59.9917 933.805 58.6957 935.461 58.6957ZM940.324 63.3757C940.324 60.6217 941.998 58.6957 944.392 58.6957C945.868 58.6957 946.912 59.4877 947.488 60.6577C947.506 60.7117 947.578 60.8917 947.686 60.8557C947.866 60.8017 947.74 60.6037 947.686 60.4417C947.56 60.1177 947.524 59.8837 947.524 59.4517V58.8397H949.252V67.2277C949.252 70.2157 947.434 71.6557 944.842 71.6557C942.124 71.6557 940.774 70.2697 940.612 68.6317H942.34C942.448 69.3697 942.844 70.2877 944.824 70.2877C946.57 70.2877 947.524 69.2617 947.524 67.2277C947.524 66.8317 947.56 66.5797 947.686 66.2737C947.758 66.1117 947.848 65.9497 947.686 65.8957C947.56 65.8597 947.506 66.0037 947.488 66.0577C946.894 67.2997 945.832 68.0557 944.392 68.0557C941.998 68.0557 940.324 66.1297 940.324 63.3757ZM944.788 66.4717C946.426 66.4717 947.524 65.1217 947.524 63.3757C947.524 61.6297 946.426 60.2797 944.788 60.2797C943.006 60.2797 942.052 61.6297 942.052 63.3757C942.052 65.1217 943.006 66.4717 944.788 66.4717ZM883.441 83.4817C883.441 81.3757 884.989 80.7277 886.753 80.6017C888.409 80.4757 890.083 80.6737 890.065 79.7197C890.047 78.9637 889.615 78.2077 887.725 78.2077C886.105 78.2077 885.547 78.8197 885.421 79.7197H883.729C884.053 77.6137 885.673 76.6957 887.797 76.6957C889.867 76.6957 891.793 77.4157 891.793 80.7997V86.0557H890.065V85.1737C890.065 84.8317 890.101 84.5617 890.263 84.0937C890.299 83.9497 890.371 83.7877 890.245 83.7337C890.101 83.6797 890.065 83.8237 890.029 83.9137C889.507 85.2817 888.283 86.1997 886.609 86.1997C884.863 86.1997 883.441 85.0477 883.441 83.4817ZM890.065 81.0877C889.507 81.7717 888.265 81.7897 886.861 81.9877C885.745 82.1497 885.169 82.5457 885.169 83.3917C885.169 84.1297 885.781 84.8137 887.275 84.6157C888.679 84.4357 890.047 83.4097 890.065 81.0877ZM893.373 81.4477C893.373 78.8377 895.011 76.6957 897.891 76.6957C900.411 76.6957 901.851 78.4057 902.013 80.2957H900.321C900.159 79.2517 899.367 78.2797 897.909 78.2797C896.145 78.2797 895.101 79.7377 895.101 81.4477C895.101 83.1577 896.145 84.6157 897.909 84.6157C899.367 84.6157 900.159 83.6437 900.321 82.5997H902.013C901.851 84.4897 900.429 86.1997 897.891 86.1997C895.065 86.1997 893.373 84.0577 893.373 81.4477ZM903.164 81.4477C903.164 78.8377 904.802 76.6957 907.682 76.6957C910.202 76.6957 911.642 78.4057 911.804 80.2957H910.112C909.95 79.2517 909.158 78.2797 907.7 78.2797C905.936 78.2797 904.892 79.7377 904.892 81.4477C904.892 83.1577 905.936 84.6157 907.7 84.6157C909.158 84.6157 909.95 83.6437 910.112 82.5997H911.804C911.642 84.4897 910.22 86.1997 907.682 86.1997C904.856 86.1997 903.164 84.0577 903.164 81.4477ZM917.419 76.6957C920.209 76.6957 921.883 78.8377 921.883 81.4477C921.883 84.0577 920.209 86.1997 917.419 86.1997C914.629 86.1997 912.955 84.0577 912.955 81.4477C912.955 78.8377 914.629 76.6957 917.419 76.6957ZM917.419 84.6157C919.147 84.6157 920.155 83.1937 920.155 81.4477C920.155 79.7017 919.147 78.2797 917.419 78.2797C915.691 78.2797 914.683 79.7017 914.683 81.4477C914.683 83.1937 915.691 84.6157 917.419 84.6157ZM926.735 86.1997C924.611 86.1997 923.315 85.0117 923.315 82.3117V76.8397H925.043V81.9517C925.043 84.0937 925.961 84.6877 927.167 84.6877C928.499 84.6877 929.939 83.3377 929.939 81.1417V76.8397H931.667V86.0557H929.939V85.4437C929.939 85.0657 929.975 84.6877 930.137 84.2197C930.191 84.0577 930.263 83.8957 930.119 83.8417C930.011 83.8057 929.957 83.9317 929.921 84.0037C929.489 84.8677 928.391 86.1997 926.735 86.1997ZM938.766 76.6957C940.89 76.6957 942.186 77.8837 942.186 80.5837V86.0557H940.458V80.9437C940.458 78.8017 939.54 78.2077 938.334 78.2077C937.002 78.2077 935.562 79.5577 935.562 81.7537V86.0557H933.834V76.8397H935.562V77.4517C935.562 77.8297 935.526 78.2077 935.364 78.6757C935.31 78.8377 935.238 79.0177 935.382 79.0537C935.49 79.0897 935.544 78.9637 935.58 78.8917C935.94 77.9917 937.11 76.6957 938.766 76.6957ZM949.248 76.8397V78.3517H946.656V83.1757C946.656 84.2197 946.872 84.5437 947.88 84.5437H949.248V86.0557H947.736C945.828 86.0557 944.928 85.3537 944.928 83.3557V78.3517H943.2V76.8397H944.928V74.2477H946.656V76.8397H949.248ZM950.695 82.8517H952.387C952.405 83.5537 952.981 84.6877 954.781 84.6877C956.545 84.6877 957.031 83.9857 957.031 83.3917C957.031 82.5637 956.257 82.3117 954.151 82.0957C951.739 81.8437 950.983 80.7457 950.983 79.5397C950.983 78.1537 952.243 76.6957 954.763 76.6957C957.085 76.6957 958.345 78.0277 958.471 79.7557H956.779C956.725 79.1617 956.329 78.2077 954.709 78.2077C953.251 78.2077 952.711 78.8017 952.711 79.4137C952.711 80.0077 953.053 80.4037 955.051 80.6197C957.535 80.8897 958.759 81.6097 958.759 83.1217C958.759 84.9937 957.229 86.1997 954.709 86.1997C952.207 86.1997 950.785 84.8857 950.695 82.8517Z" fill="#FFFEF5"/>
<path d="M973.201 5.50854C975.258 6.88848 977.531 8.5973 979.364 10.5033C982.614 13.8849 985.839 17.6973 988.61 21.5119C990.481 24.0888 992.91 27.999 994.237 30.8754C996.003 34.7033 997.049 37.385 998.018 41.5907C999.383 47.5157 999.195 53.5962 997.808 59.3286C995.768 67.7621 989.239 74.8185 982.714 80.5464C977.609 85.027 970.746 87.9583 964.717 90.1114L964.098 88.4681C970.073 86.3345 976.406 83.4867 981.298 79.187C987.591 73.6566 993.403 66.9118 995.911 58.8729C997.438 53.98 997.792 48.6113 996.991 43.4134C996.289 38.8594 994.524 34.2954 992.805 30.1457C991.392 26.7344 989.744 24.0771 987.734 21.2782C985.186 17.7293 982.386 14.2683 979.409 11.1082C977.482 9.06264 974.905 7.2159 972.835 5.82742L973.201 5.50854Z" fill="#5F5E61"/>
<path d="M975.823 85.0853C975.823 85.0853 980.058 83.748 983.42 84.142C988.756 84.7674 989.247 88.076 989.247 88.076C989.247 88.076 987.107 89.4033 982.515 88.8989C977.136 88.308 975.823 85.0853 975.823 85.0853Z" fill="#5F5E61"/>
<path d="M983.025 80.1442C983.025 80.1442 986.595 78.4532 989.979 78.4783C995.837 78.5216 996.188 81.6296 996.188 81.6296C996.188 81.6296 994.068 83.1576 989.376 83.0948C983.965 83.0223 983.025 80.1442 983.025 80.1442Z" fill="#5F5E61"/>
<path d="M988.371 74.9481C988.371 74.9481 991.765 71.9773 995.048 71.1558C1000.73 69.7336 1002.61 73.0363 1002.61 73.0363C1002.61 73.0363 1000.5 75.5675 995.942 76.6793C990.685 77.9613 988.371 74.9481 988.371 74.9481Z" fill="#5F5E61"/>
<path d="M994.392 66.944C994.392 66.944 997.294 63.8884 1001.27 62.6692C1006.45 61.078 1008.89 64.2019 1008.96 64.28C1008.96 64.28 1006.84 66.9508 1002.4 68.1217C996.457 69.6923 994.392 66.944 994.392 66.944H994.392Z" fill="#5F5E61"/>
<path d="M997.262 60.5743C997.262 60.5743 999.965 56.4631 1004 54.5226C1007.91 52.6372 1010.77 54.2429 1010.85 54.3062C1010.85 54.3062 1008.83 57.9783 1005.13 59.7379C1000.1 62.1288 997.262 60.5743 997.262 60.5743Z" fill="#5F5E61"/>
<path d="M998.128 54.9846C999.57 53.6292 999.678 49.9448 1001.74 46.9546C1004.62 42.7833 1009.36 43.0859 1009.43 43.1249C1009.43 43.1249 1008.93 48.3216 1005.33 51.4625C1001.5 54.8005 998.128 54.9846 998.128 54.9846Z" fill="#5F5E61"/>
<path d="M998.533 46.2252C998.533 46.2252 998.393 41.7084 999.586 38.2784C1001.25 33.4936 1005.79 32.5543 1005.87 32.573C1005.87 32.573 1006.61 37.6894 1003.97 41.6721C1001.18 45.9047 998.533 46.225 998.533 46.225L998.533 46.2252Z" fill="#5F5E61"/>
<path d="M996.609 37.7604C996.609 37.7604 995.703 33.9686 996.162 30.3667C996.854 24.9381 1001.08 23.7889 1001.16 23.7968C1001.16 23.7968 1002.61 28.8248 1000.55 33.1295C998.359 37.7044 996.609 37.7604 996.609 37.7604Z" fill="#5F5E61"/>
<path d="M992.884 28.6716C992.884 28.6716 991.41 25.2416 991.599 21.6157C991.861 16.5835 995.275 14.4575 995.356 14.4546C995.356 14.4546 998.648 17.419 996.758 23.8001C995.611 27.6708 992.883 28.6718 992.883 28.6718L992.884 28.6716Z" fill="#5F5E61"/>
<path d="M988.135 21.1994C988.135 21.1994 985.946 17.8317 985.34 14.2515C984.772 10.8904 986.137 7.22862 986.442 6.89209C986.442 6.89209 990.004 8.45558 989.87 14.456C989.78 18.4917 988.135 21.1994 988.135 21.1994Z" fill="#5F5E61"/>
<path d="M982.317 13.9888C982.317 13.9888 979.707 11.2128 979.027 7.41718C978.463 4.27121 979.031 0.853118 979.624 0C979.624 0 983.029 2.11256 983.276 7.45517C983.463 11.4875 982.587 13.4068 982.317 13.9887L982.317 13.9888Z" fill="#5F5E61"/>
<path d="M978.096 9.56673C978.096 9.56673 973.122 9.74622 970.65 8.31268C967.883 6.70805 965.167 3.22511 964.953 2.20833C964.953 2.20833 969.31 0.30034 973.372 3.78553C976.437 6.41593 977.858 8.97135 978.096 9.56673Z" fill="#5F5E61"/>
<path d="M983.577 15.5602C983.577 15.5602 981.198 12.7781 977.109 12.0593C973.958 11.5053 971.535 12.0168 969.98 12.922C969.98 12.922 972.38 15.9925 976.979 16.4158C981.003 16.7862 982.985 15.8105 983.577 15.5602Z" fill="#5F5E61"/>
<path d="M988.484 21.975C988.484 21.975 986.218 19.3064 982.13 18.5877C978.979 18.0337 977.466 18.602 975.91 19.5071C975.91 19.5071 977.827 22.4358 982.426 22.859C986.45 23.2294 987.893 22.2253 988.484 21.975L988.484 21.975Z" fill="#5F5E61"/>
<path d="M993.266 30.343C993.266 30.343 991.15 27.0539 987.323 25.4466C983.402 23.7995 981.388 24.586 979.702 25.2148C980.239 26.0205 982.44 29.3792 986.009 30.3874C989.898 31.4863 992.641 30.4896 993.266 30.343Z" fill="#5F5E61"/>
<path d="M996.091 37.7751C996.091 37.7751 994.216 34.3433 990.514 32.4666C986.721 30.5436 984.656 31.1841 982.929 31.6908C983.407 32.533 985.362 36.0403 988.849 37.301C992.65 38.6748 995.457 37.8767 996.091 37.7751Z" fill="#5F5E61"/>
<path d="M997.577 46.6074C995.954 44.5292 995.071 42.2951 992.574 40.0715C989.498 37.3319 986.858 38.2053 985.067 38.3822C985.949 40.0366 987.273 42.6537 990.01 44.6256C993.287 46.9872 996.935 46.5895 997.577 46.6075V46.6074Z" fill="#5F5E61"/>
<path d="M997.385 54.7452C996.005 52.4988 995.351 50.7477 993.118 48.259C990.368 45.1929 987.761 45.7373 985.961 45.7129C986.652 47.4554 987.817 50.0622 990.315 52.3275C993.308 55.0406 996.749 54.6557 997.385 54.7452Z" fill="#5F5E61"/>
<path d="M995.607 61.234C993.531 58.0327 993.793 57.3082 991.761 54.6538C989.579 51.8031 986.823 51.8815 985.03 51.7129C985.579 53.5052 986.399 55.9298 988.726 58.3711C991.207 60.9747 993.787 60.6395 995.607 61.234Z" fill="#5F5E61"/>
<path d="M992.197 67.5925C990.888 64.7602 991.114 62.9916 989.914 60.984C987.951 57.7005 986.027 57.5587 984.235 57.3903C985.664 61.4812 985.333 61.5001 986.907 63.9917C988.438 66.4163 990.519 66.7426 992.197 67.5926V67.5925Z" fill="#5F5E61"/>
<path d="M988.078 72.9394C987.333 69.9102 988.09 68.9832 987.294 66.7844C985.992 63.188 984.129 62.6835 982.402 62.1779C982.6 64.5921 982.301 66.1238 983.655 68.7406C984.612 70.5884 986.593 71.7864 988.078 72.9394Z" fill="#5F5E61"/>
<path d="M979.795 66.9923C979.795 66.9923 978.3 69.8769 978.796 73.2202C979.5 77.9572 982.035 78.6669 982.035 78.6669C982.035 78.6669 983.478 76.5138 983.332 72.1452C983.175 67.4788 979.795 66.9922 979.795 66.9922L979.795 66.9923Z" fill="#5F5E61"/>
<path d="M974.394 71.8176C974.394 71.8176 972.897 74.7382 973.224 78.1024C973.644 82.4136 976.008 83.4923 976.008 83.4923C976.008 83.4923 977.497 81.0856 977.56 77.4533C977.657 71.9068 974.394 71.8176 974.394 71.8176Z" fill="#5F5E61"/>
</svg>
