<svg width="20" height="20" viewBox="0 0 20 20" fill="none" xmlns="http://www.w3.org/2000/svg">
<path fill-rule="evenodd" clip-rule="evenodd" d="M19.0615 5.64857C18.8705 5.71709 18.6639 5.72997 18.4659 5.68572C18.2679 5.64146 18.0865 5.54188 17.9429 5.39857L17.1543 4.60857L11.1586 10.6043C11.0591 10.7038 10.941 10.7828 10.8109 10.8367C10.6809 10.8906 10.5415 10.9183 10.4007 10.9183C10.26 10.9183 10.1206 10.8906 9.99056 10.8367C9.86053 10.7828 9.74238 10.7038 9.64288 10.6043L7.35574 8.31714L1.90717 13.7657C1.80828 13.868 1.69002 13.9496 1.55927 14.0057C1.42853 14.0617 1.28792 14.0912 1.14566 14.0924C1.0034 14.0936 0.862324 14.0664 0.730676 14.0125C0.599027 13.9585 0.479438 13.8789 0.378887 13.7783C0.278335 13.6776 0.198835 13.558 0.145025 13.4263C0.0912145 13.2946 0.0641718 13.1535 0.0654746 13.0112C0.0667775 12.8689 0.0963997 12.7284 0.152613 12.5977C0.208826 12.467 0.290505 12.3488 0.392883 12.25L6.59574 6.04285C6.69524 5.94329 6.81338 5.86431 6.94342 5.81042C7.07346 5.75653 7.21284 5.7288 7.3536 5.7288C7.49436 5.7288 7.63374 5.75653 7.76377 5.81042C7.89381 5.86431 8.01195 5.94329 8.11145 6.04285L10.4 8.33143L15.6386 3.09285L14.85 2.30428C14.7064 2.16086 14.6065 1.9796 14.5619 1.78161C14.5173 1.58361 14.5299 1.37702 14.5981 1.18589C14.6664 0.994752 14.7875 0.826933 14.9474 0.701966C15.1074 0.576998 15.2995 0.500021 15.5015 0.479996C16.8057 0.351425 17.5557 0.351425 18.8115 0.479996C19.0565 0.505335 19.2854 0.614356 19.4594 0.788695C19.6335 0.963034 19.7422 1.19204 19.7672 1.43714C19.8972 2.69143 19.8957 3.44285 19.7672 4.74571C19.7471 4.94757 19.6701 5.13959 19.5452 5.29942C19.4202 5.45924 19.2525 5.58032 19.0615 5.64857ZM16.7429 7.80285C16.9048 7.64589 17.112 7.54399 17.3352 7.51168C17.5583 7.47936 17.786 7.51826 17.9857 7.62285L19.3743 8.35143C19.554 8.44599 19.7031 8.58965 19.8042 8.76568C19.9054 8.94171 19.9545 9.14287 19.9457 9.34571L19.5515 18.7571C19.54 19.0336 19.4221 19.2948 19.2224 19.4863C19.0227 19.6777 18.7567 19.7845 18.48 19.7843H15.6629C15.5682 19.7843 15.4773 19.7467 15.4103 19.6797C15.3434 19.6127 15.3057 19.5219 15.3057 19.4271V9.34714C15.3056 9.29918 15.3152 9.2517 15.3339 9.20752C15.3525 9.16334 15.3799 9.12337 15.4143 9.09L16.7429 7.80285ZM13.52 19.4271C13.52 19.5219 13.4824 19.6127 13.4154 19.6797C13.3484 19.7467 13.2576 19.7843 13.1629 19.7843H7.80574C7.71102 19.7843 7.62018 19.7467 7.5532 19.6797C7.48622 19.6127 7.4486 19.5219 7.4486 19.4271V11.1214C7.4486 11.0929 7.47003 11.07 7.4986 11.0729C7.73145 11.0843 7.96002 11.1729 8.1486 11.3371L10.4986 13.4C10.566 13.4593 10.6532 13.4911 10.743 13.4889C10.8327 13.4868 10.9184 13.451 10.9829 13.3886L12.9143 11.5143C12.9647 11.4654 13.0284 11.4325 13.0975 11.4196C13.1665 11.4068 13.2378 11.4145 13.3024 11.442C13.3671 11.4694 13.4222 11.5153 13.4609 11.5739C13.4996 11.6325 13.5202 11.7012 13.52 11.7714V19.4271ZM5.05003 13.0514L0.607168 17.5886C0.410536 17.7887 0.300257 18.058 0.300026 18.3386V18.7129C0.300026 19.3043 0.780026 19.7843 1.37145 19.7843H5.30574C5.40046 19.7843 5.4913 19.7467 5.55828 19.6797C5.62526 19.6127 5.66288 19.5219 5.66288 19.4271V13.3014C5.66302 13.2303 5.64194 13.1608 5.60235 13.1018C5.56276 13.0428 5.50645 12.9969 5.44064 12.9701C5.37482 12.9432 5.30249 12.9366 5.23291 12.9511C5.16332 12.9656 5.09965 13.0005 5.05003 13.0514Z" fill="#FFFEF5"/>
</svg>
